<svg xmlns="http://www.w3.org/2000/svg" xmlns:xlink="http://www.w3.org/1999/xlink" viewBox="0 0 568 576" width="568" height="576" preserveAspectRatio="xMidYMid meet" style="width: 100%; height: 100%; transform: translate3d(0px, 0px, 0px); content-visibility: visible;"><defs><clipPath id="__lottie_element_2526"><rect width="568" height="576" x="0" y="0"></rect></clipPath><g id="__lottie_element_2540"><g transform="matrix(1,0,0,1,279.9960021972656,281.2690124511719)" opacity="1" style="display: block;"><g opacity="1" transform="matrix(1,0,0,1,0,0)"><path fill="rgb(190,127,80)" fill-opacity="1" d=" M217.96600341796875,-46.7400016784668 C217.96600341796875,-46.7400016784668 217.96600341796875,91.77400207519531 217.96600341796875,91.77400207519531 C217.96600341796875,91.77400207519531 217.96600341796875,238.32200622558594 217.96600341796875,238.32200622558594 C217.96600341796875,238.32200622558594 217.96600341796875,243.0850067138672 217.96600341796875,243.0850067138672 C217.96600341796875,243.0850067138672 -137.38499450683594,243.0850067138672 -137.38499450683594,243.0850067138672 C-137.38499450683594,243.0850067138672 -216.51400756835938,244.11599731445312 -216.51400756835938,244.11599731445312 C-216.51400756835938,244.11599731445312 -217.96600341796875,69.79100036621094 -217.96600341796875,69.79100036621094 C-217.96600341796875,69.79100036621094 -217.96600341796875,-46.7400016784668 -217.96600341796875,-46.7400016784668 C-217.96600341796875,-90.77899932861328 -202.447998046875,-131.41700744628906 -176.2310028076172,-164.177001953125 C-171.625,-169.9239959716797 -166.69500732421875,-175.4340057373047 -161.4219970703125,-180.68600463867188 C-161.29299926757812,-180.83700561523438 -161.16400146484375,-180.96600341796875 -160.97000122070312,-181.11700439453125 C-158.94700622558594,-183.16200256347656 -156.85899353027344,-185.16299438476562 -154.72799682617188,-187.07899475097656 C-152.63999938964844,-188.99400329589844 -150.531005859375,-190.86700439453125 -148.35699462890625,-192.6750030517578 C-147.64700317382812,-193.2989959716797 -146.9149932861328,-193.90199279785156 -146.18299865722656,-194.48300170898438 C-145.86000061035156,-194.76300048828125 -145.51499938964844,-195.04299926757812 -145.17100524902344,-195.30099487304688 C-143.32000732421875,-196.80799865722656 -141.42599487304688,-198.29299926757812 -139.50999450683594,-199.69200134277344 C-139.1439971923828,-199.9929962158203 -138.7779998779297,-200.2740020751953 -138.41200256347656,-200.53199768066406 C-136.4320068359375,-202.01699829101562 -134.43099975585938,-203.45899963378906 -132.38600158691406,-204.83700561523438 C-131.9770050048828,-205.13800048828125 -131.5679931640625,-205.41799926757812 -131.15899658203125,-205.67599487304688 C-129.9969940185547,-206.4720001220703 -128.83399963378906,-207.2480010986328 -127.6500015258789,-208.00100708007812 C-93.62000274658203,-230.1280059814453 -52.292999267578125,-243.0850067138672 -7.695000171661377,-243.0850067138672 C-7.695000171661377,-243.0850067138672 7.7170000076293945,-243.0850067138672 7.7170000076293945,-243.0850067138672 C76.18599700927734,-243.0850067138672 137.03500366210938,-212.52099609375 175.41299438476562,-165.18899536132812 C176.1020050048828,-164.3280029296875 176.7899932861328,-163.4669952392578 177.45700073242188,-162.6060028076172 C177.77999877929688,-162.21800231933594 178.08200073242188,-161.83099365234375 178.38299560546875,-161.4219970703125 C179.95399475097656,-159.3769989013672 181.50399780273438,-157.30999755859375 182.98899841308594,-155.2010040283203 C183.2689971923828,-154.81399536132812 183.5489959716797,-154.42599487304688 183.78599548339844,-154.03900146484375 C184.66799926757812,-152.85499572753906 185.48599243164062,-151.64999389648438 186.26100158691406,-150.42300415039062 C186.54100036621094,-150.0570068359375 186.77699279785156,-149.6909942626953 187.01400756835938,-149.3249969482422 C187.552001953125,-148.5290069580078 188.06900024414062,-147.71099853515625 188.58599853515625,-146.89300537109375 C190.63099670410156,-143.68600463867188 192.58999633789062,-140.41400146484375 194.41900634765625,-137.0989990234375 C195.4739990234375,-135.2259979248047 196.48500061035156,-133.33299255371094 197.45399475097656,-131.41700744628906 C198.27200317382812,-129.8459930419922 199.04600524902344,-128.2740020751953 199.7779998779297,-126.7030029296875 C201.90899658203125,-122.31199645996094 203.8470001220703,-117.81300354003906 205.58999633789062,-113.25 C213.5970001220703,-92.47899627685547 217.96600341796875,-70.09400177001953 217.96600341796875,-46.7400016784668z"></path></g></g></g><g id="__lottie_element_2548"><g transform="matrix(1,0,0,1,279.9960021972656,281.2690124511719)" opacity="1" style="display: block;"><g opacity="1" transform="matrix(1,0,0,1,0,0)"><path fill="rgb(190,127,80)" fill-opacity="1" d=" M217.96600341796875,-46.7400016784668 C217.96600341796875,-46.7400016784668 217.96600341796875,91.77400207519531 217.96600341796875,91.77400207519531 C217.96600341796875,91.77400207519531 217.96600341796875,238.32200622558594 217.96600341796875,238.32200622558594 C217.96600341796875,238.32200622558594 217.96600341796875,243.0850067138672 217.96600341796875,243.0850067138672 C217.96600341796875,243.0850067138672 -137.38499450683594,243.0850067138672 -137.38499450683594,243.0850067138672 C-137.38499450683594,243.0850067138672 -216.51400756835938,244.11599731445312 -216.51400756835938,244.11599731445312 C-216.51400756835938,244.11599731445312 -217.96600341796875,69.79100036621094 -217.96600341796875,69.79100036621094 C-217.96600341796875,69.79100036621094 -217.96600341796875,-46.7400016784668 -217.96600341796875,-46.7400016784668 C-217.96600341796875,-90.77899932861328 -202.447998046875,-131.41700744628906 -176.2310028076172,-164.177001953125 C-171.625,-169.9239959716797 -166.69500732421875,-175.4340057373047 -161.4219970703125,-180.68600463867188 C-161.29299926757812,-180.83700561523438 -161.16400146484375,-180.96600341796875 -160.97000122070312,-181.11700439453125 C-158.94700622558594,-183.16200256347656 -156.85899353027344,-185.16299438476562 -154.72799682617188,-187.07899475097656 C-152.63999938964844,-188.99400329589844 -150.531005859375,-190.86700439453125 -148.35699462890625,-192.6750030517578 C-147.64700317382812,-193.2989959716797 -146.9149932861328,-193.90199279785156 -146.18299865722656,-194.48300170898438 C-145.86000061035156,-194.76300048828125 -145.51499938964844,-195.04299926757812 -145.17100524902344,-195.30099487304688 C-143.32000732421875,-196.80799865722656 -141.42599487304688,-198.29299926757812 -139.50999450683594,-199.69200134277344 C-139.1439971923828,-199.9929962158203 -138.7779998779297,-200.2740020751953 -138.41200256347656,-200.53199768066406 C-136.4320068359375,-202.01699829101562 -134.43099975585938,-203.45899963378906 -132.38600158691406,-204.83700561523438 C-131.9770050048828,-205.13800048828125 -131.5679931640625,-205.41799926757812 -131.15899658203125,-205.67599487304688 C-129.9969940185547,-206.4720001220703 -128.83399963378906,-207.2480010986328 -127.6500015258789,-208.00100708007812 C-93.62000274658203,-230.1280059814453 -52.292999267578125,-243.0850067138672 -7.695000171661377,-243.0850067138672 C-7.695000171661377,-243.0850067138672 7.7170000076293945,-243.0850067138672 7.7170000076293945,-243.0850067138672 C76.18599700927734,-243.0850067138672 137.03500366210938,-212.52099609375 175.41299438476562,-165.18899536132812 C176.1020050048828,-164.3280029296875 176.7899932861328,-163.4669952392578 177.45700073242188,-162.6060028076172 C177.77999877929688,-162.21800231933594 178.08200073242188,-161.83099365234375 178.38299560546875,-161.4219970703125 C179.95399475097656,-159.3769989013672 181.50399780273438,-157.30999755859375 182.98899841308594,-155.2010040283203 C183.2689971923828,-154.81399536132812 183.5489959716797,-154.42599487304688 183.78599548339844,-154.03900146484375 C184.66799926757812,-152.85499572753906 185.48599243164062,-151.64999389648438 186.26100158691406,-150.42300415039062 C186.54100036621094,-150.0570068359375 186.77699279785156,-149.6909942626953 187.01400756835938,-149.3249969482422 C187.552001953125,-148.5290069580078 188.06900024414062,-147.71099853515625 188.58599853515625,-146.89300537109375 C190.63099670410156,-143.68600463867188 192.58999633789062,-140.41400146484375 194.41900634765625,-137.0989990234375 C195.4739990234375,-135.2259979248047 196.48500061035156,-133.33299255371094 197.45399475097656,-131.41700744628906 C198.27200317382812,-129.8459930419922 199.04600524902344,-128.2740020751953 199.7779998779297,-126.7030029296875 C201.90899658203125,-122.31199645996094 203.8470001220703,-117.81300354003906 205.58999633789062,-113.25 C213.5970001220703,-92.47899627685547 217.96600341796875,-70.09400177001953 217.96600341796875,-46.7400016784668z"></path></g></g></g><mask id="__lottie_element_2548_1" mask-type="alpha"><use xlink:href="#__lottie_element_2548"></use></mask><mask id="__lottie_element_2540_1" mask-type="alpha"><use xlink:href="#__lottie_element_2540"></use></mask></defs><g clip-path="url(#__lottie_element_2526)"><g transform="matrix(1,0,0,1,279.9960021972656,281.2690124511719)" opacity="1" style="display: block;"><g opacity="1" transform="matrix(1,0,0,1,0,0)"><path fill="rgb(190,127,80)" fill-opacity="1" d=" M217.96600341796875,-46.7400016784668 C217.96600341796875,-46.7400016784668 217.96600341796875,91.77400207519531 217.96600341796875,91.77400207519531 C217.96600341796875,91.77400207519531 217.96600341796875,238.32200622558594 217.96600341796875,238.32200622558594 C217.96600341796875,238.32200622558594 217.96600341796875,243.0850067138672 217.96600341796875,243.0850067138672 C217.96600341796875,243.0850067138672 -137.38499450683594,243.0850067138672 -137.38499450683594,243.0850067138672 C-137.38499450683594,243.0850067138672 -216.51400756835938,244.11599731445312 -216.51400756835938,244.11599731445312 C-216.51400756835938,244.11599731445312 -217.96600341796875,69.79100036621094 -217.96600341796875,69.79100036621094 C-217.96600341796875,69.79100036621094 -217.96600341796875,-46.7400016784668 -217.96600341796875,-46.7400016784668 C-217.96600341796875,-90.77899932861328 -202.447998046875,-131.41700744628906 -176.2310028076172,-164.177001953125 C-171.625,-169.9239959716797 -166.69500732421875,-175.4340057373047 -161.4219970703125,-180.68600463867188 C-161.29299926757812,-180.83700561523438 -161.16400146484375,-180.96600341796875 -160.97000122070312,-181.11700439453125 C-158.94700622558594,-183.16200256347656 -156.85899353027344,-185.16299438476562 -154.72799682617188,-187.07899475097656 C-152.63999938964844,-188.99400329589844 -150.531005859375,-190.86700439453125 -148.35699462890625,-192.6750030517578 C-147.64700317382812,-193.2989959716797 -146.9149932861328,-193.90199279785156 -146.18299865722656,-194.48300170898438 C-145.86000061035156,-194.76300048828125 -145.51499938964844,-195.04299926757812 -145.17100524902344,-195.30099487304688 C-143.32000732421875,-196.80799865722656 -141.42599487304688,-198.29299926757812 -139.50999450683594,-199.69200134277344 C-139.1439971923828,-199.9929962158203 -138.7779998779297,-200.2740020751953 -138.41200256347656,-200.53199768066406 C-136.4320068359375,-202.01699829101562 -134.43099975585938,-203.45899963378906 -132.38600158691406,-204.83700561523438 C-131.9770050048828,-205.13800048828125 -131.5679931640625,-205.41799926757812 -131.15899658203125,-205.67599487304688 C-129.9969940185547,-206.4720001220703 -128.83399963378906,-207.2480010986328 -127.6500015258789,-208.00100708007812 C-93.62000274658203,-230.1280059814453 -52.292999267578125,-243.0850067138672 -7.695000171661377,-243.0850067138672 C-7.695000171661377,-243.0850067138672 7.7170000076293945,-243.0850067138672 7.7170000076293945,-243.0850067138672 C76.18599700927734,-243.0850067138672 137.03500366210938,-212.52099609375 175.41299438476562,-165.18899536132812 C176.1020050048828,-164.3280029296875 176.7899932861328,-163.4669952392578 177.45700073242188,-162.6060028076172 C177.77999877929688,-162.21800231933594 178.08200073242188,-161.83099365234375 178.38299560546875,-161.4219970703125 C179.95399475097656,-159.3769989013672 181.50399780273438,-157.30999755859375 182.98899841308594,-155.2010040283203 C183.2689971923828,-154.81399536132812 183.5489959716797,-154.42599487304688 183.78599548339844,-154.03900146484375 C184.66799926757812,-152.85499572753906 185.48599243164062,-151.64999389648438 186.26100158691406,-150.42300415039062 C186.54100036621094,-150.0570068359375 186.77699279785156,-149.6909942626953 187.01400756835938,-149.3249969482422 C187.552001953125,-148.5290069580078 188.06900024414062,-147.71099853515625 188.58599853515625,-146.89300537109375 C190.63099670410156,-143.68600463867188 192.58999633789062,-140.41400146484375 194.41900634765625,-137.0989990234375 C195.4739990234375,-135.2259979248047 196.48500061035156,-133.33299255371094 197.45399475097656,-131.41700744628906 C198.27200317382812,-129.8459930419922 199.04600524902344,-128.2740020751953 199.7779998779297,-126.7030029296875 C201.90899658203125,-122.31199645996094 203.8470001220703,-117.81300354003906 205.58999633789062,-113.25 C213.5970001220703,-92.47899627685547 217.96600341796875,-70.09400177001953 217.96600341796875,-46.7400016784668z"></path></g></g><g transform="matrix(0.9926518797874451,0,0,0.9926518797874451,275.2070007324219,485.8399963378906)" opacity="1" style="display: block;"><g opacity="1" transform="matrix(1,0,0,1,0,0)"><path fill="rgb(255,142,58)" fill-opacity="1" d=" M16.979999542236328,0.42500001192092896 C8.258999824523926,-2.561000108718872 0.46299999952316284,-15.008000373840332 -1.2510000467300415,-26.007999420166016 C-1.940000057220459,-20.08099937438965 -2.8989999294281006,-14.105999946594238 -5.276000022888184,-8.633000373840332 C-7.6529998779296875,-3.1589999198913574 -11.598999977111816,1.8279999494552612 -16.979999542236328,4.406000137329102 C-7.368000030517578,7.541999816894531 0.4959999918937683,16.118999481201172 2.6029999256134033,26.007999420166016 C3.4130001068115234,21.538999557495117 4.61299991607666,16.804000854492188 6.373000144958496,12.618000030517578 C8.133000373840332,8.430999755859375 13.255999565124512,3.0250000953674316 16.979999542236328,0.42500001192092896z"></path></g></g><g transform="matrix(0.007348071318119764,0,0,0.007348071318119764,245.03399658203125,97.79000091552734)" opacity="1" style="display: block;"><g opacity="1" transform="matrix(1,0,0,1,0,0)"><path fill="rgb(255,142,58)" fill-opacity="1" d=" M20.33099937438965,0.5080000162124634 C9.888999938964844,-3.068000078201294 0.5540000200271606,-17.969999313354492 -1.4980000257492065,-31.141000747680664 C-2.322999954223633,-24.04400062561035 -3.4719998836517334,-16.891000747680664 -6.317999839782715,-10.336999893188477 C-9.163999557495117,-3.7829999923706055 -13.887999534606934,2.187999963760376 -20.33099937438965,5.275000095367432 C-8.821999549865723,9.029999732971191 0.5929999947547913,19.301000595092773 3.115999937057495,31.141000747680664 C4.085999965667725,25.791000366210938 5.5229997634887695,20.121999740600586 7.63100004196167,15.109000205993652 C9.73900032043457,10.095999717712402 15.871999740600586,3.621000051498413 20.33099937438965,0.5080000162124634z"></path></g></g><g transform="matrix(0.005672631319612265,0,0,0.005672631319612265,455.1409912109375,334.2760009765625)" opacity="1" style="display: none;"><g opacity="1" transform="matrix(1,0,0,1,0,0)"><path fill="rgb(255,142,58)" fill-opacity="1" d=" M20.33099937438965,0.5090000033378601 C9.888999938964844,-3.066999912261963 0.5540000200271606,-17.969999313354492 -1.4980000257492065,-31.141000747680664 C-2.3239998817443848,-24.04400062561035 -3.4719998836517334,-16.889999389648438 -6.317999839782715,-10.336999893188477 C-9.163999557495117,-3.7829999923706055 -13.887999534606934,2.187999963760376 -20.33099937438965,5.275000095367432 C-8.821999549865723,9.029999732971191 0.5929999947547913,19.301000595092773 3.115999937057495,31.141000747680664 C4.085999965667725,25.791000366210938 5.5229997634887695,20.121999740600586 7.63100004196167,15.109000205993652 C9.73900032043457,10.095999717712402 15.871999740600586,3.621999979019165 20.33099937438965,0.5090000033378601z"></path></g></g><g transform="matrix(0.9434026479721069,0,0,0.9434026479721069,107.81999969482422,334.2760009765625)" opacity="1" style="display: none;"><g opacity="1" transform="matrix(1,0,0,1,0,0)"><path fill="rgb(255,142,58)" fill-opacity="1" d=" M20.33099937438965,0.5090000033378601 C9.888999938964844,-3.066999912261963 0.5540000200271606,-17.969999313354492 -1.4980000257492065,-31.141000747680664 C-2.3239998817443848,-24.04400062561035 -3.4719998836517334,-16.889999389648438 -6.317999839782715,-10.336999893188477 C-9.163999557495117,-3.7829999923706055 -13.887999534606934,2.187999963760376 -20.33099937438965,5.275000095367432 C-8.821999549865723,9.029999732971191 0.5929999947547913,19.301000595092773 3.115999937057495,31.141000747680664 C4.085999965667725,25.791000366210938 5.5229997634887695,20.121999740600586 7.63100004196167,15.109000205993652 C9.73900032043457,10.095999717712402 15.871999740600586,3.621999979019165 20.33099937438965,0.5090000033378601z"></path></g></g><g transform="matrix(0,0,0,0,107.81999969482422,334.2760009765625)" opacity="1" style="display: block;"><g opacity="1" transform="matrix(1,0,0,1,0,0)"><path fill="rgb(255,142,58)" fill-opacity="1" d=" M20.33099937438965,0.5090000033378601 C9.888999938964844,-3.066999912261963 0.5540000200271606,-17.969999313354492 -1.4980000257492065,-31.141000747680664 C-2.3239998817443848,-24.04400062561035 -3.4719998836517334,-16.889999389648438 -6.317999839782715,-10.336999893188477 C-9.163999557495117,-3.7829999923706055 -13.887999534606934,2.187999963760376 -20.33099937438965,5.275000095367432 C-8.821999549865723,9.029999732971191 0.5929999947547913,19.301000595092773 3.115999937057495,31.141000747680664 C4.085999965667725,25.791000366210938 5.5229997634887695,20.121999740600586 7.63100004196167,15.109000205993652 C9.73900032043457,10.095999717712402 15.871999740600586,3.621999979019165 20.33099937438965,0.5090000033378601z"></path></g></g><g transform="matrix(0.7177474498748779,0,0,0.7177474498748779,364.10400390625,133.69400024414062)" opacity="1" style="display: block;"><g opacity="1" transform="matrix(1,0,0,1,0,0)"><path fill="rgb(255,142,58)" fill-opacity="1" d=" M20.33099937438965,0.5080000162124634 C9.888999938964844,-3.068000078201294 0.5540000200271606,-17.969999313354492 -1.4980000257492065,-31.141000747680664 C-2.3239998817443848,-24.04400062561035 -3.4719998836517334,-16.891000747680664 -6.317999839782715,-10.336999893188477 C-9.163999557495117,-3.7829999923706055 -13.887999534606934,2.187999963760376 -20.33099937438965,5.275000095367432 C-8.821999549865723,9.029999732971191 0.5929999947547913,19.301000595092773 3.115999937057495,31.141000747680664 C4.085999965667725,25.791000366210938 5.5229997634887695,20.121999740600586 7.63100004196167,15.109000205993652 C9.73900032043457,10.095999717712402 15.871999740600586,3.621000051498413 20.33099937438965,0.5080000162124634z"></path></g></g><g transform="matrix(1,0,0,1,-260.7518615722656,-270.7819519042969)" opacity="1" style="display: block;"><g opacity="1" transform="matrix(1,0,0,1,0,0)"><g opacity="1" transform="matrix(1,0,0,1,562.9000244140625,404.3009948730469)"><path fill="rgb(156,115,247)" fill-opacity="1" d=" M148.7733154296875,-12.032265663146973 C148.7733154296875,-12.032265663146973 -20.839000701904297,75.88099670410156 -20.839000701904297,75.88099670410156 C-20.839000701904297,75.88099670410156 -157.0590057373047,-59.43875503540039 -157.0590057373047,-59.43875503540039 C-157.0590057373047,-59.43875503540039 -150.879150390625,-64.74775695800781 -150.879150390625,-64.74775695800781 C-150.879150390625,-64.74775695800781 -149.92247009277344,-65.56475830078125 -149.92247009277344,-65.56475830078125 C-149.92247009277344,-65.56475830078125 -145.27783203125,-69.55775451660156 -145.27783203125,-69.55775451660156 C-145.27783203125,-69.55775451660156 -144.28067016601562,-70.41975402832031 -144.28067016601562,-70.41975402832031 C-144.28067016601562,-70.41975402832031 -139.57603454589844,-74.45875549316406 -139.57603454589844,-74.45875549316406 C-139.57603454589844,-74.45875549316406 -138.5596466064453,-75.34275817871094 -138.5596466064453,-75.34275817871094 C-138.5596466064453,-75.34275817871094 -136.1874542236328,-77.38475799560547 -136.1874542236328,-77.38475799560547 C-136.1874542236328,-77.38475799560547 -93.98029327392578,-64.09844207763672 -56.32453155517578,-28.770938873291016 C-18.647275924682617,6.577813148498535 -10.993000030517578,39.39799880981445 -10.993000030517578,39.39799880981445 C-10.993000030517578,39.39799880981445 4.230498313903809,-38.10126495361328 131.94322204589844,-34.63026428222656 C131.94322204589844,-34.63026428222656 133.86289978027344,-32.04326629638672 133.86289978027344,-32.04326629638672 C133.86289978027344,-32.04326629638672 134.75502014160156,-30.841264724731445 134.75502014160156,-30.841264724731445 C134.75502014160156,-30.841264724731445 138.98147583007812,-25.169265747070312 138.98147583007812,-25.169265747070312 C138.98147583007812,-25.169265747070312 139.85435485839844,-24.012266159057617 139.85435485839844,-24.012266159057617 C139.85435485839844,-24.012266159057617 142.33580017089844,-20.677265167236328 142.33580017089844,-20.677265167236328 C142.33580017089844,-20.677265167236328 143.1504669189453,-19.565265655517578 143.1504669189453,-19.565265655517578 C143.1504669189453,-19.565265655517578 148.7733154296875,-12.032265663146973 148.7733154296875,-12.032265663146973z"></path></g><g opacity="1" transform="matrix(1,0,0,1,0,0)"><g opacity="1" transform="matrix(1,0,0,1,564.64697265625,388.6910095214844)"><g opacity="1" transform="matrix(1,0,0,1,0,0)"><path fill="rgb(60,61,0)" fill-opacity="1" d=" M133.00802612304688,-15.2312650680542 C115.65540313720703,-15.889265060424805 95.16558837890625,-12.000475883483887 68.78131103515625,-4.976694107055664 C12.398772239685059,10.043306350708008 -12.78499984741211,57.00400161743164 -13.125,57.45800018310547 C-13.125,57.45800018310547 -13.71500015258789,58.22999954223633 -13.71500015258789,58.22999954223633 C-13.71500015258789,58.22999954223633 -14.12399959564209,57.345001220703125 -14.12399959564209,57.345001220703125 C-14.282999992370605,57.027000427246094 -26.272993087768555,25.565805435180664 -67.60074615478516,-11.186939239501953 C-99.87561798095703,-39.887939453125 -127.90666961669922,-54.33375549316406 -141.3230438232422,-58.8487548828125 C-141.3230438232422,-58.8487548828125 -140.306640625,-59.73375701904297 -140.306640625,-59.73375701904297 C-126.3517074584961,-54.991756439208984 -98.79823303222656,-40.43268966674805 -66.96271514892578,-12.116938591003418 C-29.18599510192871,21.485061645507812 -16.211000442504883,50.810001373291016 -13.48799991607666,56.00600051879883 C-8.654999732971191,50.106998443603516 15.774344444274902,7.938569068908691 68.56815338134766,-6.11069393157959 C94.56835174560547,-13.030694007873535 114.78252410888672,-17.02426528930664 132.11590576171875,-16.43426513671875 C132.11590576171875,-16.43426513671875 133.00802612304688,-15.2312650680542 133.00802612304688,-15.2312650680542z"></path></g></g><g opacity="1" transform="matrix(1,0,0,1,564.385986328125,392.7300109863281)"><g opacity="1" transform="matrix(1,0,0,1,0,0)"><path fill="rgb(60,61,0)" fill-opacity="1" d=" M138.3683624267578,-12.441265106201172 C120.60791015625,-12.055265426635742 92.92364501953125,-7.540250301361084 63.55589294433594,0.21930603682994843 C30.788570404052734,8.886305809020996 4.811759948730469,35.726009368896484 -8.279186248779297,48.74599838256836 C-12.409180641174316,52.85300064086914 -12.77299976348877,55.779998779296875 -13.657999992370605,56.641998291015625 C-13.72599983215332,56.6870002746582 -13.772000312805176,56.733001708984375 -13.817000389099121,56.77799987792969 C-13.907999992370605,56.84600067138672 -13.95300006866455,56.89099884033203 -13.97599983215332,56.91400146484375 C-13.97599983215332,56.91400146484375 -14.406999588012695,57.345001220703125 -14.406999588012695,57.345001220703125 C-14.406999588012695,57.345001220703125 -14.746999740600586,56.89099884033203 -14.746999740600586,56.89099884033203 C-14.746999740600586,56.89099884033203 -14.793000221252441,56.84600067138672 -14.861000061035156,56.77799987792969 C-15.111000061035156,56.4379997253418 -16.652999877929688,54.4640007019043 -18.985445022583008,51.310001373291016 C-27.896621704101562,39.14899826049805 -49.473392486572266,8.954046249389648 -77.18785095214844,-13.614938735961914 C-104.99725341796875,-36.257938385009766 -133.2277374267578,-52.4737548828125 -146.76382446289062,-57.98675537109375 C-146.76382446289062,-57.98675537109375 -145.76666259765625,-58.8487548828125 -145.76666259765625,-58.8487548828125 C-131.7519989013672,-53.08575439453125 -104.04810333251953,-36.92991638183594 -76.58955383300781,-14.567938804626465 C-43.1785774230957,12.635061264038086 -18.128000259399414,50.720001220703125 -14.293999671936035,55.57500076293945 C-9.439000129699707,50.9010009765625 20.68661117553711,10.314554214477539 63.341983795166016,-0.9376939535140991 C92.32791900634766,-8.583693504333496 119.56110382080078,-13.190265655517578 137.4954833984375,-13.598265647888184 C137.4954833984375,-13.598265647888184 138.3683624267578,-12.441265106201172 138.3683624267578,-12.441265106201172z"></path></g></g><g opacity="1" transform="matrix(1,0,0,1,563.1270141601562,395.10101318359375)"><g opacity="1" transform="matrix(1,0,0,1,0,0)"><path fill="rgb(60,61,0)" fill-opacity="1" d=" M142.9234619140625,-10.365265846252441 C126.96623992919922,-9.77526569366455 103.24456787109375,-4.753927230834961 71.67823028564453,3.452306032180786 C22.35318946838379,16.271305084228516 -8.270000457763672,50.93600082397461 -12.39900016784668,54.270999908447266 C-12.467000007629395,54.316001892089844 -12.512999534606934,54.36199951171875 -12.557999610900879,54.40700149536133 C-12.64900016784668,54.474998474121094 -12.694000244140625,54.52000045776367 -12.717000007629395,54.542999267578125 C-12.717000007629395,54.542999267578125 -13.10200023651123,54.861000061035156 -13.10200023651123,54.861000061035156 C-13.10200023651123,54.861000061035156 -13.48799991607666,54.52000045776367 -13.48799991607666,54.52000045776367 C-13.48799991607666,54.52000045776367 -13.534000396728516,54.474998474121094 -13.60200023651123,54.40700149536133 C-15.711999893188477,52.52399826049805 -43.83066177368164,21.992053985595703 -86.13507843017578,-10.358939170837402 C-119.24740600585938,-35.67893981933594 -140.18141174316406,-50.44275665283203 -151.10614013671875,-55.54775619506836 C-151.10614013671875,-55.54775619506836 -150.14947509765625,-56.36475372314453 -150.14947509765625,-56.36475372314453 C-138.84637451171875,-51.03275680541992 -118.17779541015625,-36.281917572021484 -85.55677795410156,-11.333938598632812 C-51.96586227416992,14.349061012268066 -27.864479064941406,39.01227951049805 -17.726444244384766,48.93899917602539 C-15.453977584838867,51.1619987487793 -13.760000228881836,52.68299865722656 -13.057000160217285,53.31800079345703 C-11.968000411987305,52.45600128173828 -11.377571105957031,49.920013427734375 -7.019937992095947,46.375 C6.746211528778076,35.16699981689453 33.98574447631836,12.046546936035156 71.46531677246094,2.3173060417175293 C102.58409118652344,-5.7596940994262695 125.99690246582031,-10.841265678405762 142.1088104248047,-11.476265907287598 C142.1088104248047,-11.476265907287598 142.9234619140625,-10.365265846252441 142.9234619140625,-10.365265846252441z"></path></g></g></g></g><g opacity="1" transform="matrix(1,0,0,1,0,0)"><g opacity="1" transform="matrix(1,0,0,1,544.9459838867188,481.0559997558594)"><path fill="rgb(187,148,118)" fill-opacity="1" d=" M-145.21340942382812,-148.92974853515625 C-145.21340942382812,-148.92974853515625 -1.18912935256958,-38.52199935913086 -1.18912935256958,-38.52199935913086 C-1.18912935256958,-38.52199935913086 9.626715660095215,-35.625999450683594 9.626715660095215,-35.625999450683594 C9.626715660095215,-35.625999450683594 65.252197265625,-93.43026733398438 171.1889190673828,-94.00926208496094 C171.1889190673828,-94.00926208496094 136.04185485839844,99.46973419189453 136.04185485839844,99.46973419189453 C136.04185485839844,99.46973419189453 -37.07400131225586,147.42599487304688 -37.07400131225586,147.42599487304688 C-37.07400131225586,147.42599487304688 -175.2430419921875,42.23224639892578 -175.2430419921875,42.23224639892578 C-175.2430419921875,42.23224639892578 -145.21340942382812,-148.92974853515625 -145.21340942382812,-148.92974853515625z"></path></g><g opacity="0.22" transform="matrix(1,0,0,1,544.9459838867188,481.0559997558594)"><path fill="rgb(60,61,0)" fill-opacity="1" d=" M-145.21340942382812,-148.92974853515625 C-145.21340942382812,-148.92974853515625 -1.18912935256958,-38.52199935913086 -1.18912935256958,-38.52199935913086 C-1.18912935256958,-38.52199935913086 9.626715660095215,-35.625999450683594 9.626715660095215,-35.625999450683594 C9.626715660095215,-35.625999450683594 65.252197265625,-93.43026733398438 171.1889190673828,-94.00926208496094 C171.1889190673828,-94.00926208496094 136.04185485839844,99.46973419189453 136.04185485839844,99.46973419189453 C136.04185485839844,99.46973419189453 -37.07400131225586,147.42599487304688 -37.07400131225586,147.42599487304688 C-37.07400131225586,147.42599487304688 -175.2430419921875,42.23224639892578 -175.2430419921875,42.23224639892578 C-175.2430419921875,42.23224639892578 -145.21340942382812,-148.92974853515625 -145.21340942382812,-148.92974853515625z"></path></g></g><g opacity="1" transform="matrix(1,0,0,1,0,0)"><g opacity="1" transform="matrix(1,0,0,1,650.802978515625,503.2799987792969)"><path stroke-linecap="round" stroke-linejoin="round" fill-opacity="0" stroke="rgb(255,142,58)" stroke-opacity="1" stroke-width="1.417" d=" M19.254634857177734,4.854000091552734 C15.870573997497559,1.840999960899353 15.949054718017578,-2.6144962310791016 17.58084487915039,-11.82800006866455 C19.217899322509766,-21.08300018310547 8.034404754638672,-22.913000106811523 8.034404754638672,-22.913000106811523 C10.260210037231445,-33.9119987487793 -0.2425769567489624,-35.138999938964844 -0.2425769567489624,-35.138999938964844 C0.01481414120644331,-41.91899871826172 -4.806090354919434,-45.12430191040039 -8.005279541015625,-47.57899856567383 C-10.176108360290527,-49.236000061035156 -10.76435661315918,-51.32475280761719 -10.911544799804688,-52.508750915527344 C-10.451739311218262,-53.197750091552734 -9.91696548461914,-53.15099334716797 -9.45791244506836,-53.2400016784668 C-8.023272514343262,-53.52000045776367 -6.809287071228027,-54.74700164794922 -6.459685325622559,-56.297000885009766 C-5.668271064758301,-56.21099853515625 -4.638962745666504,-56.834999084472656 -4.1973981857299805,-57.52399826049805 C-3.7555861473083496,-58.2130012512207 -3.53518009185791,-59.029998779296875 -3.3510069847106934,-59.847999572753906 C-2.486375093460083,-59.266998291015625 -1.8251566886901855,-58.53499984741211 -1.843149185180664,-57.45899963378906 C-1.3833444118499756,-58.428001403808594 -0.8305772542953491,-59.632999420166016 -0.7763516306877136,-60.70899963378906 C-0.7211260795593262,-61.80699920654297 -1.1811789274215698,-63.012752532958984 -2.1007883548736572,-63.464752197265625 C-1.8983747959136963,-64.86375427246094 -2.2197659015655518,-66.36498260498047 -3.0014052391052246,-67.53299713134766 C-3.773826837539673,-68.69499969482422 -4.988812446594238,-69.51300048828125 -6.276264190673828,-69.75 C-6.221038341522217,-70.41699981689453 -6.294256687164307,-71.21399688720703 -6.533655166625977,-72.01000213623047 C-6.938234329223633,-73.55999755859375 -7.895076751708984,-75.10900115966797 -9.329716682434082,-75.7979965209961 C-9.329716682434082,-75.7979965209961 -9.329716682434082,-75.81900024414062 -9.329716682434082,-75.81900024414062 C-9.347957611083984,-75.81900024414062 -9.347957611083984,-75.81900024414062 -9.365949630737305,-75.81900024414062 C-9.365949630737305,-75.81900024414062 -9.38469409942627,-75.84100341796875 -9.402935028076172,-75.84100341796875 C-9.402935028076172,-75.84100341796875 -9.402935028076172,-75.81975555419922 -9.402935028076172,-75.7979965209961 C-11.168935775756836,-75.4540023803711 -12.897951126098633,-73.02100372314453 -13.100364685058594,-71.08399963378906 C-14.387816429138184,-71.23500061035156 -15.716012954711914,-70.78675842285156 -16.705081939697266,-69.9000015258789 C-17.66167640686035,-69.03900146484375 -18.249923706054688,-67.72624969482422 -18.379119873046875,-66.39199829101562 C-18.397111892700195,-66.3272476196289 -18.397111892700195,-66.28475189208984 -18.397111892700195,-66.22000122070312 C-19.39069175720215,-66.0479965209961 -20.073406219482422,-64.99299621582031 -20.218338012695312,-63.9379997253418 C-20.36552619934082,-62.86199951171875 -20.07090187072754,-61.527000427246094 -19.81351089477539,-60.45100021362305 C-19.61109733581543,-61.527000427246094 -18.838924407958984,-62.04399871826172 -17.901073455810547,-62.345001220703125 C-17.845848083496094,-61.48400115966797 -17.808862686157227,-60.62300109863281 -17.514488220214844,-59.82699966430664 C-17.220111846923828,-59.00899887084961 -16.355480194091797,-58.12699890136719 -15.58305835723877,-57.97600173950195 C-15.52783203125,-56.382999420166016 -14.608222961425781,-54.8120002746582 -13.265793800354004,-54.12300109863281 C-12.879206657409668,-53.92900085449219 -12.345935821533203,-53.433998107910156 -12.051560401916504,-52.810001373291016 C-12.474379539489746,-51.691001892089844 -13.47021484375,-49.99551010131836 -15.767230987548828,-49.064998626708984 C-19.372699737548828,-47.60100173950195 -24.688190460205078,-45.922000885009766 -25.77322769165039,-39.270999908447266 C-25.77322769165039,-39.270999908447266 -36.20304489135742,-41.14400100708008 -36.1848030090332,-29.82200050354004 C-36.1848030090332,-29.82200050354004 -47.43581008911133,-31.328752517700195 -47.66242599487305,-21.878999710083008 C-47.82785415649414,-14.819000244140625 -48.323143005371094,-10.621248245239258 -50.182106018066406,-8.125 C-50.80733871459961,-7.285999774932861 -51.58051300048828,-6.639999866485596 -52.57333755493164,-6.166999816894531 C-52.57333755493164,-6.166999816894531 -51.50654220581055,-5.132999897003174 -50.604923248291016,-3.368000030517578 C-49.64833068847656,-1.5820000171661377 -48.868194580078125,0.9557443857192993 -49.48290252685547,3.884999990463257 C-50.69713592529297,9.718000411987305 -52.03355026245117,14.492992401123047 -49.6853141784668,18.865999221801758 C-47.3310661315918,23.256999969482422 -42.23598098754883,23.38599967956543 -42.23598098754883,23.38599967956543 C-42.23598098754883,23.38599967956543 -43.423702239990234,28.953481674194336 -39.789520263671875,32.770999908447266 C-36.14781951904297,36.60200119018555 -33.11235809326172,35.569000244140625 -33.11235809326172,35.569000244140625 C-33.11235809326172,35.569000244140625 -35.47432327270508,40.942481994628906 -31.73294448852539,45.83599853515625 C-28.3488826751709,50.27000045776367 -23.713356018066406,49.53900146484375 -22.609573364257812,53.09000015258789 C-23.032392501831055,53.17599868774414 -23.472700119018555,53.165279388427734 -23.897024154663086,53.21900177001953 C-25.34965705871582,53.39099884033203 -26.637859344482422,54.553001403808594 -27.07967185974121,56.060001373291016 C-27.852094650268555,55.930999755859375 -28.91889190673828,56.49100112915039 -29.396936416625977,57.15800094604492 C-29.874982833862305,57.80400085449219 -30.132125854492188,58.621246337890625 -30.371522903442383,59.417999267578125 C-31.217914581298828,58.79399871826172 -31.806411743164062,58.01900100708008 -31.75118637084961,56.94300079345703 C-32.24797439575195,57.86899948120117 -32.88499069213867,59.02924728393555 -33.00215530395508,60.12799835205078 C-33.11235809326172,61.20399856567383 -32.72677230834961,62.430999755859375 -31.82515525817871,62.948001861572266 C-31.862140655517578,63.07699966430664 -31.8801326751709,63.22800064086914 -31.8801326751709,63.356998443603516 C-32.027320861816406,64.62699890136719 -31.767675399780273,65.98149871826172 -31.125951766967773,67.05899810791016 C-30.408756256103516,68.26399993896484 -29.249500274658203,69.14700317382812 -27.980289459228516,69.47000122070312 C-28.25592041015625,71.40699768066406 -26.159814834594727,75.02300262451172 -24.375574111938477,75.84100341796875 C-24.375574111938477,75.84100341796875 -24.375574111938477,75.7770004272461 -24.375574111938477,75.7770004272461 C-22.591331481933594,75.34624481201172 -19.612096786499023,73.02100372314453 -19.519886016845703,71.04100036621094 C-18.21369171142578,71.10600280761719 -16.91777229309082,70.5792236328125 -15.987637519836426,69.64199829101562 C-15.2334566116333,68.88899993896484 -14.755659103393555,67.85600280761719 -14.590229988098145,66.75800323486328 C-14.535004615783691,66.45700073242188 -14.49802017211914,66.15499877929688 -14.49802017211914,65.85399627685547 C-13.523184776306152,65.61699676513672 -12.897951126098633,64.51899719238281 -12.805989265441895,63.44300079345703 C-12.713778495788574,62.367000579833984 -13.063380241394043,61.05400085449219 -13.393989562988281,59.999000549316406 C-13.541177749633789,61.07500076293945 -14.277613639831543,61.63524627685547 -15.197223663330078,62.022247314453125 C-15.271193504333496,61.16124725341797 -15.362403869628906,60.27899932861328 -15.712005615234375,59.50400161743164 C-16.061607360839844,58.729000091552734 -16.981464385986328,57.88999938964844 -17.75388526916504,57.78200149536133 C-17.864089965820312,56.18899917602539 -18.87590980529785,54.68299865722656 -20.25532341003418,54.08000183105469 C-20.6601505279541,53.90800094604492 -21.101211547851562,53.77799987792969 -21.50579071044922,53.5629997253418 C-19.721548080444336,50.44200134277344 -15.364907264709473,52.52699279785156 -11.205168724060059,49.21500015258789 C-6.606873035430908,45.555999755859375 -7.858091831207275,39.637001037597656 -7.858091831207275,39.637001037597656 C-7.858091831207275,39.637001037597656 -5.099015235900879,41.552249908447266 -0.8133366107940674,38.904998779296875 C3.472342014312744,36.257999420166016 3.3991241455078125,30.48900032043457 3.3991241455078125,30.48900032043457 C3.3991241455078125,30.48900032043457 8.392276763916016,31.872766494750977 11.529668807983398,28.315000534057617 C14.675332069396973,24.742000579833984 14.312196731567383,19.726999282836914 14.269753456115723,13.699999809265137 C14.232768058776855,7.672999858856201 19.254634857177734,4.854000091552734 19.254634857177734,4.854000091552734z"></path></g><g opacity="1" transform="matrix(1,0,0,1,657.4769897460938,449.9700012207031)"><path stroke-linecap="round" stroke-linejoin="round" fill-opacity="0" stroke="rgb(255,142,58)" stroke-opacity="1" stroke-width="1.417" d=" M-17.634273529052734,0.10700000077486038 C-17.62477684020996,-0.03700000047683716 -17.622777938842773,-0.11299999803304672 -17.63002586364746,-0.10700000077486038 C-17.63002586364746,-0.10700000077486038 -17.635272979736328,-0.029999999329447746 -17.634273529052734,0.10700000077486038z"></path></g></g><g opacity="1" transform="matrix(1,0,0,1,0,0)"><g opacity="1" transform="matrix(1,0,0,1,433.45001220703125,483.9620056152344)"><path stroke-linecap="round" stroke-linejoin="round" fill-opacity="0" stroke="rgb(255,142,58)" stroke-opacity="1" stroke-width="1.417" d=" M47.7149658203125,-13.540204048156738 C49.78758239746094,-22.623205184936523 39.5936279296875,-25.464204788208008 39.5936279296875,-25.464204788208008 C42.328556060791016,-36.205204010009766 32.72995376586914,-38.400203704833984 32.72995376586914,-38.400203704833984 C33.39226150512695,-45.137203216552734 29.14289093017578,-48.77225112915039 26.342212677001953,-51.50920486450195 C24.439481735229492,-53.36020278930664 24.03175163269043,-55.512203216552734 23.963796615600586,-56.696205139160156 C24.439729690551758,-57.34220504760742 24.932903289794922,-57.230445861816406 25.357370376586914,-57.27720260620117 C26.682235717773438,-57.42820358276367 27.888431549072266,-58.547203063964844 28.312898635864258,-60.054203033447266 C29.026674270629883,-59.90320587158203 30.011516571044922,-60.420204162597656 30.453472137451172,-61.06620407104492 C30.911914825439453,-61.71220397949219 31.167245864868164,-62.53020477294922 31.387847900390625,-63.32620620727539 C32.15233612060547,-62.659202575683594 32.71271514892578,-61.88320541381836 32.628021240234375,-60.80720520019531 C33.120445251464844,-61.711204528808594 33.698307037353516,-62.874202728271484 33.80023956298828,-63.95020294189453 C33.93614959716797,-65.02620697021484 33.57988739013672,-66.27520751953125 32.76417922973633,-66.81320190429688 C33.0359992980957,-68.19120788574219 32.84491729736328,-69.72672271728516 32.18706512451172,-70.96720123291016 C31.54124641418457,-72.17220306396484 30.470712661743164,-73.09745025634766 29.298492431640625,-73.44220733642578 C29.58704948425293,-75.37920379638672 28.806072235107422,-78.52220153808594 26.852123260498047,-79.77020263671875 C26.852123260498047,-79.77020263671875 26.852123260498047,-79.79220581054688 26.852123260498047,-79.79220581054688 C26.852123260498047,-79.79220581054688 26.852123260498047,-79.79220581054688 26.83463478088379,-79.79220581054688 C26.83463478088379,-79.79220581054688 26.81789779663086,-79.81320190429688 26.801408767700195,-79.81320190429688 C26.801408767700195,-79.81320190429688 26.801408767700195,-79.79120635986328 26.801408767700195,-79.77020263671875 C25.153257369995117,-79.59820556640625 23.403173446655273,-77.31720733642578 23.097375869750977,-75.40120697021484 C21.92515754699707,-75.6592025756836 20.668245315551758,-75.3572006225586 19.699892044067383,-74.56120300292969 C18.731538772583008,-73.76520538330078 18.103206634521484,-72.43120574951172 17.933319091796875,-71.05320739746094 C16.998943328857422,-70.96720123291016 16.33042335510254,-69.97419738769531 16.115280151367188,-68.92220306396484 C15.894679069519043,-67.86720275878906 16.09779167175293,-66.5112075805664 16.26767921447754,-65.4352035522461 C16.505521774291992,-66.46820068359375 17.270009994506836,-66.92020416259766 18.15367317199707,-67.13520812988281 C18.137184143066406,-66.27420806884766 18.11969566345215,-65.4132080078125 18.34029769897461,-64.57420349121094 C18.560897827148438,-63.756202697753906 19.308650970458984,-62.78720474243164 20.02242660522461,-62.57220458984375 C19.954471588134766,-60.95820617675781 20.718711853027344,-59.32220458984375 21.90842056274414,-58.52620315551758 C22.248193740844727,-58.28920364379883 22.706886291503906,-57.75120544433594 22.94472885131836,-57.10520553588867 C22.486284255981445,-56.029205322265625 21.47047233581543,-54.40167236328125 19.29216194152832,-53.683204650878906 C15.877437591552734,-52.564205169677734 10.882516860961914,-51.38020324707031 9.472208023071289,-44.85820388793945 C9.472208023071289,-44.85820388793945 -0.024461153894662857,-47.67720413208008 -0.7042586803436279,-36.37720489501953 C-0.7042586803436279,-36.37720489501953 -10.952439308166504,-38.89620590209961 -11.747146606445312,-29.51120376586914 C-12.341500282287598,-22.473203659057617 -13.068305015563965,-18.35373878479004 -14.906787872314453,-16.03720474243164 C-15.53511905670166,-15.241204261779785 -16.30035972595215,-14.681204795837402 -17.234737396240234,-14.272204399108887 C-17.234737396240234,-14.272204399108887 -16.326623916625977,-13.147941589355469 -15.586585998535156,-11.323204040527344 C-14.82209587097168,-9.450203895568848 -14.264727592468262,-6.846956253051758 -15.008720397949219,-3.9832043647766113 C-16.486984252929688,1.7207956314086914 -18.015714645385742,6.347795486450195 -16.11298370361328,10.932795524597168 C-14.210253715515137,15.51779556274414 -9.538619041442871,16.09879493713379 -9.538619041442871,16.09879493713379 C-9.538619041442871,16.09879493713379 -10.968371391296387,21.55301284790039 -7.856489658355713,25.698795318603516 C-4.747562408447266,29.85279655456543 -1.876725673675537,29.099796295166016 -1.876725673675537,29.099796295166016 C-1.876725673675537,29.099796295166016 -4.39851713180542,34.2377815246582 -1.2473944425582886,39.452796936035156 C1.2329533100128174,43.56379699707031 4.800324440002441,43.86579513549805 6.2271223068237305,46.25479507446289 C6.447724342346191,46.62079620361328 6.6186113357543945,47.0297966003418 6.72054386138916,47.52479553222656 C6.330054759979248,47.58979415893555 5.922077178955078,47.5037956237793 5.514099597930908,47.52479553222656 C5.412167072296143,47.52479553222656 5.293497562408447,47.552059173583984 5.1908135414123535,47.56779479980469 C3.9678802490234375,47.73979568481445 2.8638644218444824,48.707794189453125 2.4219090938568115,50.08579635620117 C1.7081341743469238,49.87079620361328 0.7058025598526001,50.32279586791992 0.21338112652301788,50.94679641723633 C-0.26255154609680176,51.54979705810547 -0.551108181476593,52.367794036865234 -0.8229278922080994,53.12079620361328 C-1.553439736366272,52.410797119140625 -2.063349962234497,51.592796325683594 -1.9446806907653809,50.53779602050781 C-2.4545907974243164,51.39879608154297 -3.113892078399658,52.518795013427734 -3.2860350608825684,53.59479522705078 C-3.4559223651885986,54.64979553222656 -3.1841025352478027,55.91879653930664 -2.3856358528137207,56.52179718017578 C-2.6402149200439453,57.61979675292969 -2.6069893836975098,58.82479476928711 -2.267214775085449,59.900794982910156 C-2.1992597579956055,60.15879440307617 -2.1100566387176514,60.4155387878418 -1.9951468706130981,60.6547966003418 C-1.4007929563522339,61.92479705810547 -0.39770954847335815,62.914794921875 0.7572687268257141,63.36679458618164 C0.5194264650344849,64.61504364013672 1.1642465591430664,66.65979766845703 2.0818862915039062,68.18779754638672 C2.55781888961792,69.02679443359375 3.134932279586792,69.69479370117188 3.6788198947906494,70.0387954711914 C3.6788198947906494,70.0387954711914 3.6960604190826416,69.97479248046875 3.6960604190826416,69.97479248046875 C3.9166622161865234,69.93179321289062 4.154752731323242,69.8667984008789 4.426572322845459,69.78079223632812 C6.091212749481201,69.15679931640625 8.283251762390137,67.39179229736328 8.453139305114746,65.6907958984375 C9.642847061157227,65.88479614257812 10.87550163269043,65.4667739868164 11.799908638000488,64.61479187011719 C12.717548370361328,63.775794982910156 13.294909477233887,62.397796630859375 13.396842002868652,60.9767951965332 C14.2972412109375,60.8257942199707 14.952083587646484,59.81705093383789 15.112948417663574,58.73879623413086 C15.265595436096191,57.68379592895508 15.010767936706543,56.327796936035156 14.772926330566406,55.25179672241211 C14.569061279296875,56.30679702758789 13.85528564453125,56.801795959472656 12.988863945007324,57.1027946472168 C12.971375465393066,56.24179458618164 12.938150405883789,55.35979461669922 12.666330337524414,54.54179382324219 C12.394510269165039,53.74579620361328 11.613532066345215,52.81979751586914 10.899757385253906,52.625797271728516 C10.883268356323242,51.03279495239258 10.049824714660645,49.439796447753906 8.809650421142578,48.72979736328125 C8.453139305114746,48.492794036865234 8.045161247253418,48.36379623413086 7.705386638641357,48.105796813964844 C9.523426055908203,45.156795501708984 13.423856735229492,47.628089904785156 17.457386016845703,44.704795837402344 C18.493696212768555,43.95179748535156 19.257184982299805,43.04704284667969 19.80182456970215,42.10079574584961 C21.585886001586914,39.00179672241211 21.110200881958008,35.470794677734375 21.110200881958008,35.470794677734375 C21.110200881958008,35.470794677734375 23.544593811035156,37.63657760620117 27.650588989257812,35.384796142578125 C31.76184844970703,33.124794006347656 32.050907135009766,27.35579490661621 32.050907135009766,27.35579490661621 C32.050907135009766,27.35579490661621 36.56092834472656,29.19556999206543 39.661582946777344,25.935794830322266 C42.787750244140625,22.64279556274414 42.770511627197266,17.627796173095703 43.09379577636719,11.60079574584961 C43.41633224487305,5.595795631408691 48.224124908447266,3.248795747756958 48.224124908447266,3.248795747756958 C45.28508377075195,-0.06620432436466217 45.64836120605469,-4.49794864654541 47.7149658203125,-13.540204048156738z"></path></g><g opacity="1" transform="matrix(1,0,0,1,444.20098876953125,431.3550109863281)"><path stroke-linecap="round" stroke-linejoin="round" fill-opacity="0" stroke="rgb(255,142,58)" stroke-opacity="1" stroke-width="1.417" d=" M13.220293998718262,-4.7802042961120605 C13.23778247833252,-4.92320442199707 13.243526458740234,-4.998204231262207 13.23678207397461,-4.993204116821289 C13.23678207397461,-4.993204116821289 13.227789878845215,-4.9172043800354 13.220293998718262,-4.7802042961120605z"></path></g></g><g opacity="1" transform="matrix(1,0,0,1,438.64898681640625,477.5799865722656)"><path stroke-linecap="round" stroke-linejoin="round" fill-opacity="0" stroke="rgb(255,142,58)" stroke-opacity="1" stroke-width="1.637" d=" M-32.29868698120117,-121.124755859375 C-32.29868698120117,-121.124755859375 91.23600006103516,-31.570999145507812 91.23600006103516,-31.570999145507812 C91.23600006103516,-31.570999145507812 59.809242248535156,119.62100219726562 59.809242248535156,119.62100219726562 C59.809242248535156,119.62100219726562 -59.784210205078125,41.073246002197266 -59.784210205078125,41.073246002197266 C-59.784210205078125,41.073246002197266 -32.29868698120117,-121.124755859375 -32.29868698120117,-121.124755859375z"></path></g><g opacity="1" transform="matrix(1,0,0,1,638.5960083007812,502.3919982910156)"><path stroke-linecap="round" stroke-linejoin="round" fill-opacity="0" stroke="rgb(255,142,58)" stroke-opacity="1" stroke-width="1.637" d=" M-102.33899688720703,94.80899810791016 C-102.33899688720703,94.80899810791016 -71.97765350341797,-52.7140007019043 -71.97765350341797,-52.7140007019043 C-71.97765350341797,-52.7140007019043 -7.1113505363464355,-93.33426666259766 67.30827331542969,-99.32026672363281 C67.30827331542969,-99.32026672363281 33.316219329833984,70.60173797607422 33.316219329833984,70.60173797607422 C33.316219329833984,70.60173797607422 -102.33899688720703,94.80899810791016 -102.33899688720703,94.80899810791016z"></path></g><g opacity="1" transform="matrix(1,0,0,1,0,0)"><g opacity="1" transform="matrix(1,0,0,1,521.3889770507812,524.791015625)"><path stroke-linecap="butt" stroke-linejoin="miter" fill-opacity="0" stroke-miterlimit="10" stroke="rgb(60,61,0)" stroke-opacity="1" stroke-width="2.269" d=" M23.72565269470215,-81.6780014038086 C23.72565269470215,-81.6780014038086 -17.33168601989746,81.6780014038086 -17.33168601989746,81.6780014038086"></path></g><g opacity="1" transform="matrix(1,0,0,1,535.81298828125,528.073974609375)"><path stroke-linecap="butt" stroke-linejoin="miter" fill-opacity="0" stroke-miterlimit="10" stroke="rgb(60,61,0)" stroke-opacity="1" stroke-width="2.269" d=" M18.759716033935547,-82.64399719238281 C18.759716033935547,-82.64399719238281 -21.87700080871582,82.64399719238281 -21.87700080871582,82.64399719238281"></path></g></g></g><g mask="url(#__lottie_element_2540_1)" style="display: block;"><g transform="matrix(1,0,0,1,-260.7518615722656,-270.7819519042969)" opacity="1"><g opacity="1" transform="matrix(1,0,0,1,0,0)"><g opacity="1" transform="matrix(1,0,0,1,0,0)"><g opacity="1" transform="matrix(1,0,0,1,477.7969970703125,637.8629760742188)"><g opacity="1" transform="matrix(1,0,0,1,0,0)"><path fill="rgb(236,79,157)" fill-opacity="1" d=" M131.46444702148438,-75.78721618652344 C131.38563537597656,-74.59719848632812 131.07382202148438,-73.35014343261719 130.5957794189453,-71.98506927490234 C130.5957794189453,-71.98506927490234 130.59727478027344,-71.96307373046875 130.59727478027344,-71.96307373046875 C129.52671813964844,-69.00989532470703 127.59571838378906,-65.70209503173828 124.96675109863281,-62.096439361572266 C123.7332534790039,-60.40574645996094 122.35201263427734,-58.66228103637695 120.8227767944336,-56.866546630859375 C120.28087615966797,-56.208709716796875 119.69672393798828,-55.548622131347656 119.11032104492188,-54.90953063964844 C109.55242919921875,-44.07180404663086 98.78448486328125,-26.978607177734375 83.21234130859375,-14.396964073181152 C82.51492309570312,-13.816106796264648 81.81525421142578,-13.25724983215332 81.1170883178711,-12.696640968322754 C71.21126556396484,-4.746868133544922 60.809932708740234,3.1889798641204834 50.723777770996094,10.65352725982666 C50.0008544921875,11.171887397766113 49.278682708740234,11.689248085021973 48.5782585144043,12.227105140686035 C44.59568786621094,15.141217231750488 40.69511032104492,17.986066818237305 36.895259857177734,20.716148376464844 C36.358062744140625,21.093231201171875 35.820621490478516,21.470561981201172 35.30442428588867,21.846893310546875 C34.68473815917969,22.293487548828125 34.0658073425293,22.740833282470703 33.46511459350586,23.143674850463867 C30.966882705688477,24.954809188842773 28.5308895111084,26.678688049316406 26.17313003540039,28.348793029785156 C24.974754333496094,29.197477340698242 23.818378448486328,30.021154403686523 22.65999412536621,30.824583053588867 C22.65999412536621,30.824583053588867 22.63799476623535,30.826086044311523 22.63799476623535,30.826086044311523 C13.068985939025879,37.57005310058594 4.81030797958374,43.19731521606445 -1.0461063385009766,47.17496871948242 C-34.86748504638672,70.15165710449219 -61.81399917602539,96.31999969482422 -90.39800262451172,109.49299621582031 C-118.96099853515625,122.68699645996094 -127.94400024414062,118.47899627685547 -127.94400024414062,118.47899627685547 C-127.94400024414062,118.47899627685547 -138.93499755859375,105.29000091552734 -138.93499755859375,105.29000091552734 C-138.93499755859375,105.29000091552734 -135.27200317382812,6.36899995803833 -135.27200317382812,6.36899995803833 C-111.7030029296875,-13.885000228881836 -100.10841369628906,-35.52180862426758 -95.99198150634766,-42.62470245361328 C-85.5354232788086,-60.67158508300781 -67.30084991455078,-101.77552032470703 -58.109222412109375,-104.53086853027344 C-51.779991149902344,-106.423583984375 16.602144241333008,-123.0267105102539 61.165164947509766,-135.85537719726562 C61.80509567260742,-136.03146362304688 62.42152404785156,-136.2202606201172 63.03970718383789,-136.39634704589844 C75.19509887695312,-139.89541625976562 85.0875015258789,-142.7298126220703 90.71537780761719,-144.33123779296875 C91.27156829833984,-144.49002075195312 91.78550720214844,-144.64454650878906 92.25945281982422,-144.78228759765625 C93.35157775878906,-145.09535217285156 94.21723937988281,-145.33981323242188 94.815673828125,-145.5076141357422 C94.815673828125,-145.5076141357422 94.8119125366211,-145.52886962890625 94.8119125366211,-145.52886962890625 C95.49409484863281,-145.71397399902344 95.84505462646484,-145.8079071044922 95.84505462646484,-145.8079071044922 C95.84505462646484,-145.8079071044922 106.48960876464844,-134.6741943359375 64.5688247680664,-109.29393005371094 C64.5688247680664,-109.29393005371094 64.5478286743164,-109.28942108154297 64.5478286743164,-109.28942108154297 C64.51008605957031,-109.26014709472656 64.45185852050781,-109.2251205444336 64.41411590576172,-109.19584655761719 C58.71017837524414,-105.74431610107422 51.29668045043945,-101.79341888427734 43.411685943603516,-97.81824493408203 C42.383663177490234,-97.2999496459961 41.35538864135742,-96.7809066772461 40.3236083984375,-96.28361511230469 C39.41706848144531,-95.81188201904297 38.527767181396484,-95.36341094970703 37.61595916748047,-94.9151840209961 C29.2335147857666,-90.80001831054688 20.678512573242188,-86.78001403808594 13.389985084533691,-83.39368438720703 C13.289504051208496,-83.35087585449219 13.1682710647583,-83.30406188964844 13.072300910949707,-83.24076080322266 C10.418323516845703,-82.03611755371094 7.924314975738525,-80.89332580566406 5.6705098152160645,-79.87487030029297 C-1.6150630712509155,-76.57604217529297 -6.417657852172852,-74.46826934814453 -6.417657852172852,-74.46826934814453 C-6.417657852172852,-74.46826934814453 -6.306380271911621,-66.94083404541016 -6.306380271911621,-66.94083404541016 C-6.306380271911621,-66.94083404541016 -2.327244758605957,-67.86511993408203 4.280289173126221,-69.3501968383789 C6.363725662231445,-69.82125854492188 8.72440242767334,-70.33111572265625 11.299078941345215,-70.87525939941406 C11.767815589904785,-70.96783447265625 12.256552696228027,-71.08390808105469 12.723786354064941,-71.19847869873047 C13.363018989562988,-71.32357788085938 14.023500442504883,-71.44967651367188 14.682229995727539,-71.59727478027344 C24.259958267211914,-73.5789794921875 35.56226348876953,-78.01497650146484 48.32147979736328,-80.12516021728516 C48.983219146728516,-80.2297592163086 49.666954040527344,-80.33611297607422 50.34994125366211,-80.44221496582031 C50.34843444824219,-80.46321868896484 50.34843444824219,-80.46347045898438 50.34843444824219,-80.46347045898438 C69.32102966308594,-83.53209686279297 86.99214935302734,-88.42524719238281 102.86196899414062,-88.29792785644531 C114.8282699584961,-88.2047348022461 124.29878997802734,-86.62316131591797 128.75839233398438,-82.73457336425781 C128.8496551513672,-82.65383911132812 128.94091796875,-82.5738525390625 129.0104217529297,-82.49161529541016 C129.67051696777344,-81.90670776367188 130.20611572265625,-81.24979400634766 130.61648559570312,-80.52010345458984 C131.3896942138672,-79.14421081542969 131.65792846679688,-77.56575012207031 131.46444702148438,-75.78721618652344z"></path></g></g><g opacity="1" transform="matrix(1,0,0,1,527.85498046875,544.5750122070312)"><g opacity="1" transform="matrix(1,0,0,1,0,0)"><path fill="rgb(60,61,0)" fill-opacity="1" d=" M15.835103034973145,-16.03960609436035 C15.11729907989502,-15.606974601745605 14.398741722106934,-15.175094604492188 13.660441398620605,-14.737200736999512 C-4.03257942199707,-4.2408127784729 -27.8104190826416,7.054894924163818 -44.70157241821289,14.744832038879395 C-49.08995819091797,16.744890213012695 -52.999935150146484,18.508481979370117 -56.246334075927734,19.929901123046875 C-62.05224609375,22.46394920349121 -65.6638412475586,23.997594833374023 -65.78532409667969,24.044158935546875 C-65.84430694580078,24.077939987182617 -65.90705108642578,24.090970993041992 -65.99079895019531,24.10826301574707 C-66.47225952148438,24.208263397216797 -66.98115539550781,23.964262008666992 -67.18991088867188,23.483352661132812 C-67.41144561767578,22.9399471282959 -67.79637145996094,23.334131240844727 -67.22289276123047,23.191545486450195 C-66.9896469116211,23.134260177612305 -57.03408432006836,18.0209903717041 -44.00690460205078,12.09063720703125 C-27.647876739501953,4.643286228179932 -5.56174373626709,-5.9328436851501465 11.371780395507812,-15.879074096679688 C11.764185905456543,-16.09153175354004 12.172073364257812,-16.32950210571289 12.561471939086914,-16.561704635620117 C43.84185028076172,-35.132301330566406 47.66734313964844,-42.277000427246094 44.75767135620117,-52.21886444091797 C44.75767135620117,-52.21886444091797 44.75391387939453,-52.239864349365234 44.75391387939453,-52.239864349365234 C44.595123291015625,-52.79605484008789 44.93434143066406,-53.36849594116211 45.48677062988281,-53.54853439331055 C46.06871795654297,-53.690834045410156 46.65464401245117,-53.37562561035156 46.81644058227539,-52.820186614990234 C50.326927185058594,-40.819305419921875 43.64006805419922,-32.73336410522461 15.835103034973145,-16.03960609436035z"></path></g></g><g opacity="1" transform="matrix(1,0,0,1,539.5540161132812,617.2340087890625)"><g opacity="1" transform="matrix(1,0,0,1,0,0)"><path fill="rgb(60,61,0)" fill-opacity="1" d=" M70.82109832763672,-54.21337890625 C70.82109832763672,-54.21337890625 70.82184600830078,-54.19137954711914 70.82184600830078,-54.19137954711914 C70.81062316894531,-54.01862716674805 70.77864837646484,-53.8443717956543 70.7259292602539,-53.647361755371094 C70.7484359741211,-53.62686538696289 70.7484359741211,-53.62686538696289 70.72743225097656,-53.625362396240234 C70.10929107666016,-49.60125732421875 67.7184829711914,-44.91138458251953 63.922523498535156,-39.679039001464844 C47.017494201660156,-16.370412826538086 5.658352375030518,21.499221801757812 -35.347816467285156,49.3075065612793 C-36.34172058105469,49.97140884399414 -37.33637237548828,50.63506317138672 -38.30927658081055,51.297462463378906 C-38.474510192871094,51.41523742675781 -38.665252685546875,51.469512939453125 -38.85850143432617,51.481544494628906 C-38.94450378417969,51.48680877685547 -39.029998779296875,51.492576599121094 -39.097007751464844,51.45333480834961 C-39.097007751464844,51.45333480834961 -39.118255615234375,51.45408630371094 -39.118255615234375,51.45408630371094 C-39.40126037597656,51.40637969970703 -39.647789001464844,51.24941635131836 -39.81382369995117,51.001190185546875 C-40.14414978027344,50.52574157714844 -40.01024627685547,49.85197448730469 -39.51605224609375,49.51713943481445 C-38.543148040771484,48.854740142822266 -37.569740295410156,48.21358871459961 -36.61808776855469,47.552696228027344 C17.593767166137695,10.77513313293457 49.70766830444336,-23.249374389648438 62.959407806396484,-42.05540084838867 C65.0229721069336,-44.981971740722656 66.54106903076172,-47.66046142578125 67.5172119140625,-50.047115325927734 C67.5172119140625,-50.047115325927734 67.51570892333984,-50.069114685058594 67.51570892333984,-50.069114685058594 C68.15071868896484,-51.68071746826172 68.55950164794922,-53.12703323364258 68.69329833984375,-54.471805572509766 C68.92451477050781,-56.33934783935547 68.65226745605469,-57.98281478881836 67.90106201171875,-59.35945510864258 C67.68450164794922,-59.73442459106445 67.44569396972656,-60.10738754272461 67.14463806152344,-60.45534133911133 C66.6792984008789,-61.030521392822266 66.08772277832031,-61.532432556152344 65.41314697265625,-62.01008605957031 C61.24694061279297,-64.96821594238281 53.2567138671875,-66.2859878540039 42.87965393066406,-66.48368835449219 C15.93099308013916,-67.00486755371094 -23.6731014251709,-55.26360321044922 -57.62910842895508,-48.0444221496582 C-65.99111938476562,-46.266151428222656 -73.8128662109375,-44.47645950317383 -80.69589233398438,-42.830665588378906 C-81.26937103271484,-42.688079833984375 -81.8519287109375,-43.06249237060547 -81.99451446533203,-43.6359748840332 C-82.13710021972656,-44.20945358276367 -81.78519439697266,-44.792762756347656 -81.18971252441406,-44.93459701538086 C-80.21249389648438,-45.16599655151367 -75.45389556884766,-46.29521942138672 -68.16036987304688,-47.922828674316406 C-64.94796752929688,-48.61331558227539 -61.225830078125,-49.42087936401367 -57.119197845458984,-50.29450225830078 C-30.092220306396484,-55.94186019897461 10.277240753173828,-68.54553985595703 39.76058578491211,-68.51422882080078 C55.10588836669922,-68.49654388427734 66.58597564697266,-66.27800750732422 69.79915618896484,-60.401241302490234 C70.79268646240234,-58.58688735961914 71.09099578857422,-56.51417541503906 70.82109832763672,-54.21337890625z"></path></g></g><g opacity="1" transform="matrix(1,0,0,1,543.114013671875,588.7269897460938)"><g opacity="1" transform="matrix(1,0,0,1,0,0)"><path fill="rgb(60,61,0)" fill-opacity="1" d=" M-72.30694580078125,16.508623123168945 C-72.78819274902344,16.537946701049805 -73.2452392578125,16.239013671875 -73.3975601196289,15.758035659790039 C-73.57514190673828,15.191810607910156 -73.26023864746094,14.587510108947754 -72.69476318359375,14.407923698425293 C-72.69476318359375,14.407923698425293 62.50511932373047,-33.7219352722168 62.50511932373047,-33.7219352722168 C63.071346282958984,-33.89552307128906 63.675140380859375,-33.586612701416016 63.85472869873047,-33.01838684082031 C64.03231811523438,-32.4521598815918 63.717403411865234,-31.84861183166504 63.151180267333984,-31.669025421142578 C63.151180267333984,-31.669025421142578 -72.0479507446289,16.46108055114746 -72.0479507446289,16.46108055114746 C-72.1334457397461,16.48734474182129 -72.22093963623047,16.503358840942383 -72.30694580078125,16.508623123168945z"></path></g></g><g opacity="1" transform="matrix(1,0,0,1,551.3569946289062,609.9760131835938)"><g opacity="1" transform="matrix(1,0,0,1,0,0)"><path fill="rgb(60,61,0)" fill-opacity="1" d=" M-64.89896392822266,29.526609420776367 C-65.32746124267578,29.55292510986328 -65.74874877929688,29.31673812866211 -65.9403076171875,28.90301513671875 C-66.18963623046875,28.364301681518555 -65.9544906616211,27.72551155090332 -65.4147720336914,27.476181030273438 C-64.29385375976562,26.957759857177734 43.509002685546875,-29.067726135253906 57.087764739990234,-47.45183563232422 C57.43919372558594,-47.92964172363281 58.111427307128906,-48.0319938659668 58.59098434448242,-47.67756652832031 C59.06878662109375,-47.32313919067383 59.17013931274414,-46.6496467590332 58.81671142578125,-46.171844482421875 C44.913265228271484,-27.34943389892578 -59.913536071777344,27.305099487304688 -64.51322937011719,29.429302215576172 C-64.63822174072266,29.486820220947266 -64.76896667480469,29.51909065246582 -64.89896392822266,29.526609420776367z"></path></g></g><g opacity="1" transform="matrix(1,0,0,1,570.27197265625,527.0230102539062)"><g opacity="1" transform="matrix(1,0,0,1,0,0)"><path fill="rgb(60,61,0)" fill-opacity="1" d=" M-0.30217400193214417,-27.81028175354004 C-2.5789525508880615,-20.35310935974121 -9.852263450622559,-16.05324935913086 -15.908692359924316,-14.515357971191406 C-16.301902770996094,-14.412403106689453 -16.695865631103516,-14.308448791503906 -17.072338104248047,-14.230253219604492 C-20.023880004882812,-13.618976593017578 -22.585737228393555,-13.654669761657715 -24.86240577697754,-14.320287704467773 C-28.13875961303711,-15.279402732849121 -30.6383056640625,-17.66596031188965 -31.411056518554688,-20.539915084838867 C-31.78953742980957,-21.946020126342773 -31.737070083618164,-23.48410415649414 -31.31183624267578,-25.01337432861328 C-30.671903610229492,-25.189456939697266 -30.056978225708008,-25.383028030395508 -29.437294006347656,-25.554597854614258 C-30.0767765045166,-24.002967834472656 -30.241703033447266,-22.398080825805664 -29.863222122192383,-20.969470977783203 C-29.252267837524414,-18.650951385498047 -27.116683959960938,-16.633432388305664 -24.415924072265625,-15.853317260742188 C-22.11800765991211,-15.19371509552002 -19.46493911743164,-15.241570472717285 -16.296751022338867,-16.072216033935547 C-10.67578125,-17.497880935668945 -3.8970046043395996,-21.445951461791992 -1.8184669017791748,-28.28227424621582 C-1.3390073776245117,-29.865821838378906 -1.1637731790542603,-31.866731643676758 -1.7616218328475952,-33.48948287963867 C-1.20543372631073,-33.64827346801758 -0.6899901032447815,-33.79879379272461 -0.21754643321037292,-33.94028854370117 C0.47974562644958496,-31.944822311401367 0.2651278078556061,-29.657896041870117 -0.30217400193214417,-27.81028175354004z"></path></g></g></g></g><g opacity="1" transform="matrix(1,0,0,1,382.10400390625,693.3300170898438)"><path fill="rgb(156,115,247)" fill-opacity="1" d=" M60.07400131225586,45.04999923706055 C60.07400131225586,45.04999923706055 19.22100067138672,89.0250015258789 19.22100067138672,89.0250015258789 C19.22100067138672,89.0250015258789 -65.34700012207031,166.75900268554688 -65.34700012207031,166.75900268554688 C-65.34700012207031,166.75900268554688 -151.07400512695312,-12.329999923706055 -151.07400512695312,-12.329999923706055 C-151.07400512695312,-12.329999923706055 -60.07400131225586,-85.1500015258789 -60.07400131225586,-85.1500015258789 C-60.07400131225586,-85.1500015258789 -44.34000015258789,-89.0250015258789 -44.34000015258789,-89.0250015258789 C-44.34000015258789,-89.0250015258789 -29.961999893188477,-70.55699920654297 -29.961999893188477,-70.55699920654297 C-29.961999893188477,-70.55699920654297 45.97600173950195,26.969999313354492 45.97600173950195,26.969999313354492 C45.97600173950195,26.969999313354492 45.99800109863281,26.969999313354492 45.99800109863281,26.969999313354492 C45.99800109863281,26.969999313354492 60.07400131225586,45.04999923706055 60.07400131225586,45.04999923706055z"></path></g></g></g><g mask="url(#__lottie_element_2548_1)" style="display: block;"><g transform="matrix(0.9992251992225647,0.039358049631118774,-0.039358049631118774,0.9992251992225647,-233.081787109375,-302.86962890625)" opacity="1"><g opacity="0.28" transform="matrix(1,0,0,1,520.7750244140625,556.5599975585938)"><path fill="rgb(60,61,0)" fill-opacity="1" d=" M30.575000762939453,-7.120999813079834 C10.98799991607666,-0.3840000033378601 -14.755000114440918,5.922999858856201 -32.986000061035156,10.034000396728516 C-32.81399917602539,9.604000091552734 -32.619998931884766,9.194999694824219 -32.404998779296875,8.78600025177002 C-32.21099853515625,8.376999855041504 -31.996000289916992,7.9679999351501465 -31.759000778198242,7.559000015258789 C-28.724000930786133,2.0269999504089355 -24.160999298095703,-2.7079999446868896 -18.650999069213867,-5.828999996185303 C-9.288000106811523,-11.12399959564209 0.6990000009536743,-9.897000312805176 10.859000205993652,-9.9399995803833 C16.714000701904297,-9.961000442504883 22.676000595092773,-9.574000358581543 28.552000045776367,-8.713000297546387 C29.584999084472656,-8.541000366210938 30.618999481201172,-8.390999794006348 31.652000427246094,-8.196999549865723 C32.104000091552734,-8.111000061035156 32.555999755859375,-8.045999526977539 32.986000061035156,-7.960000038146973 C32.189998626708984,-7.679999828338623 31.39299964904785,-7.401000022888184 30.575000762939453,-7.120999813079834z"></path></g><g opacity="0.28" transform="matrix(1,0,0,1,541.5999755859375,616.2550048828125)"><path fill="rgb(60,61,0)" fill-opacity="1" d=" M68.2750015258789,-23.767000198364258 C49.979000091552734,-1.5110000371932983 3.2709999084472656,29.097000122070312 -39.36899948120117,54.38800048828125 C-39.433998107910156,54.279998779296875 -39.51900100708008,54.152000427246094 -39.58399963378906,54.04399871826172 C-39.90700149536133,53.54899978637695 -40.22999954223633,53.07600021362305 -40.53099822998047,52.558998107910156 C-44.49100112915039,45.972999572753906 -46.2130012512207,38.071998596191406 -44.49100112915039,30.625 C-52.90700149536133,29.80699920654297 -61.17300033569336,25.28700065612793 -65.43499755859375,17.9689998626709 C-69.6969985961914,10.628999710083008 -69.24400329589844,0.5339999794960022 -63.51900100708008,-5.708000183105469 C-64.61699676513672,-6.869999885559082 -65.47799682617188,-8.161999702453613 -66.10199737548828,-9.560999870300293 C-66.40299987792969,-10.206999778747559 -66.66200256347656,-10.895000457763672 -66.83399963378906,-11.583999633789062 C-68.75,-18.17099952697754 -66.29499816894531,-26.242000579833984 -61.60300064086914,-31.645000457763672 C-60.441001892089844,-32.97999954223633 -59.17100143432617,-34.20600128173828 -58.28799819946289,-35.7130012512207 C-56.82400131225586,-38.14500045776367 -56.48099899291992,-41.02899932861328 -55.834999084472656,-43.784000396728516 C-55.79199981689453,-43.91299819946289 -55.77000045776367,-44.06399917602539 -55.72700119018555,-44.19300079345703 C-55.683998107910156,-44.43000030517578 -55.61899948120117,-44.645999908447266 -55.53300094604492,-44.861000061035156 C-55.40399932861328,-45.39899826049805 -55.25299835205078,-45.893001556396484 -55.08100128173828,-46.40999984741211 C-27.7450008392334,-50.41299819946289 16.444000244140625,-55.8380012512207 45.888999938964844,-54.029998779296875 C46.340999603271484,-53.75 46.77199935913086,-53.426998138427734 47.180999755859375,-53.104000091552734 C47.762001037597656,-52.69499969482422 48.32099914550781,-52.24399948120117 48.88100051879883,-51.8129997253418 C52.28200149536133,-49.12200164794922 55.40299987792969,-46.08700180053711 58.137001037597656,-42.750999450683594 C58.65299987792969,-42.14799880981445 59.12699890136719,-41.52399826049805 59.599998474121094,-40.900001525878906 C60.15999984741211,-40.189998626708984 60.67599868774414,-39.43600082397461 61.19300079345703,-38.68299865722656 C62.7859992980957,-36.33700180053711 64.16400146484375,-33.90399932861328 65.32599639892578,-31.38599967956543 C65.64900207519531,-30.739999771118164 65.94999694824219,-30.072999954223633 66.2300033569336,-29.4060001373291 C66.68199920654297,-28.35099983215332 67.09100341796875,-27.297000885009766 67.45700073242188,-26.198999404907227 C67.54299926757812,-26.0049991607666 67.62899780273438,-25.81100082397461 67.6719970703125,-25.59600067138672 C67.88700103759766,-24.993000030517578 68.10299682617188,-24.391000747680664 68.2750015258789,-23.767000198364258z"></path></g><g opacity="1" transform="matrix(1,0,0,1,0,0)"><g opacity="1" transform="matrix(1,0,0,1,615.343017578125,653.1649780273438)"><path fill="rgb(236,79,157)" fill-opacity="1" d=" M130.19200134277344,-8.932999610900879 C130.19200134277344,-8.932999610900879 129.4600067138672,36.49700164794922 129.4600067138672,36.49700164794922 C129.4600067138672,36.49700164794922 133.4720001220703,80.28600311279297 133.4720001220703,80.28600311279297 C133.4720001220703,80.28600311279297 103.81099700927734,97.87100219726562 103.81099700927734,97.87100219726562 C43.909000396728516,83.5790023803711 -46.77299880981445,46.75 -85.23699951171875,26.40999984741211 C-94.51399993896484,21.50200080871582 -100.92900085449219,16.917999267578125 -105.2979965209961,12.807000160217285 C-105.2979965209961,12.807000160217285 -105.72799682617188,12.37600040435791 -105.72799682617188,12.37600040435791 C-106.13700103759766,11.98799991607666 -106.50399780273438,11.60200023651123 -106.89099884033203,11.236000061035156 C-116.18900299072266,1.5709999799728394 -114.38099670410156,-5.4019999504089355 -113.26200103759766,-7.813000202178955 C-112.96099853515625,-8.437000274658203 -112.7239990234375,-8.76099967956543 -112.7239990234375,-8.76099967956543 C-116.03900146484375,-10.288999557495117 -118.83699798583984,-11.946999549865723 -121.18299865722656,-13.6899995803833 C-121.87200164794922,-14.206999778747559 -122.53900146484375,-14.722000122070312 -123.14199829101562,-15.23900032043457 C-136.87399291992188,-26.905000686645508 -132.31100463867188,-41.284000396728516 -130.74000549316406,-45.137001037597656 C-130.74000549316406,-45.137001037597656 -130.74000549316406,-45.15800094604492 -130.74000549316406,-45.15800094604492 C-130.48199462890625,-45.78200149536133 -130.3090057373047,-46.12699890136719 -130.3090057373047,-46.12699890136719 C-130.5030059814453,-46.45000076293945 -130.67599487304688,-46.77299880981445 -130.8260040283203,-47.07400131225586 C-131.1060028076172,-47.569000244140625 -131.34300231933594,-48.04199981689453 -131.55799865722656,-48.5369987487793 C-131.88099670410156,-49.22600173950195 -132.16000366210938,-49.893001556396484 -132.39700317382812,-50.53900146484375 C-137.6269989013672,-65.1969985961914 -122.06500244140625,-72.49400329589844 -122.06500244140625,-72.49400329589844 C-122.06500244140625,-72.49400329589844 -122.19400024414062,-72.86000061035156 -122.34500122070312,-73.5270004272461 C-122.68900299072266,-75.0979995727539 -123.16300201416016,-78.3270034790039 -122.3239974975586,-82.13700103759766 C-122.3030014038086,-82.3740005493164 -122.23699951171875,-82.63200378417969 -122.1729965209961,-82.86900329589844 C-122.04399871826172,-83.34200286865234 -121.91400146484375,-83.83699798583984 -121.74199676513672,-84.33200073242188 C-121.5479965209961,-84.89199829101562 -121.3550033569336,-85.45099639892578 -121.09700012207031,-86.01100158691406 C-120.75299835205078,-86.78600311279297 -120.34300231933594,-87.56099700927734 -119.87000274658203,-88.33599853515625 C-119.61199951171875,-88.76599884033203 -119.33200073242188,-89.1969985961914 -119.00900268554688,-89.62799835205078 C-119.00900268554688,-89.62799835205078 -118.98699951171875,-89.62799835205078 -118.98699951171875,-89.62799835205078 C-118.83699798583984,-89.86499786376953 -118.66500091552734,-90.12200164794922 -118.47100067138672,-90.35900115966797 C-118.31999969482422,-90.5739974975586 -118.14800262451172,-90.76899719238281 -117.9540023803711,-90.98400115966797 C-116.98500061035156,-92.16799926757812 -115.78099822998047,-93.35099792480469 -114.36000061035156,-94.49199676513672 C-112.0780029296875,-96.30000305175781 -106.82599639892578,-97.31199645996094 -99.48600006103516,-97.6780014038086 C-97.01100158691406,-97.8290023803711 -94.27799987792969,-97.87100219726562 -91.37200164794922,-97.87100219726562 C-91.37200164794922,-97.87100219726562 -90.74700164794922,-97.87100219726562 -90.74700164794922,-97.87100219726562 C-89.26200103759766,-97.87100219726562 -87.71299743652344,-97.8499984741211 -86.12000274658203,-97.80699920654297 C-86.12000274658203,-97.80699920654297 -86.11900329589844,-97.80699920654297 -86.0979995727539,-97.80699920654297 C-85.1719970703125,-97.78500366210938 -84.24700164794922,-97.76399993896484 -83.27799987792969,-97.72100067138672 C-83.27799987792969,-97.72100067138672 -83.27799987792969,-97.72100067138672 -83.25700378417969,-97.72100067138672 C-40.638999938964844,-96.27899932861328 31.402999877929688,-85 52.691001892089844,-80.19999694824219 C81.81300354003906,-73.59200286865234 79.61799621582031,-32.39400100708008 82.37300109863281,-26.884000778198242 C84.48200225830078,-22.687000274658203 111.572998046875,-13.581999778747559 130.19200134277344,-8.932999610900879z"></path></g><g opacity="1" transform="matrix(1,0,0,1,0,0)"><g opacity="1" transform="matrix(1,0,0,1,0,0)"><g opacity="1" transform="matrix(1,0,0,1,570.3090209960938,618.3070068359375)"><g opacity="1" transform="matrix(1,0,0,1,0,0)"><path fill="rgb(60,61,0)" fill-opacity="1" d=" M88.90799713134766,-10.855999946594238 C88.77899932861328,-10.274999618530273 88.1969985961914,-9.90999984741211 87.61599731445312,-10.017000198364258 C86.927001953125,-10.168000221252441 18.84600067138672,-24.76099967956543 -39.41999816894531,-32.35900115966797 C-43.81100082397461,-32.939998626708984 -47.70800018310547,-33.41400146484375 -51.130001068115234,-33.86600112915039 C-53.691001892089844,-34.16699981689453 -56.01599884033203,-34.446998596191406 -58.082000732421875,-34.70500183105469 C-64.4530029296875,-35.45800018310547 -68.71499633789062,-35.9109992980957 -71.5780029296875,-36.16899871826172 C-73.62300109863281,-36.362998962402344 -74.93599700927734,-36.470001220703125 -75.75399780273438,-36.51300048828125 C-76.27100372314453,-36.555999755859375 -76.59300231933594,-36.555999755859375 -76.78700256347656,-36.555999755859375 C-77.9280014038086,-35.974998474121094 -83.6969985961914,-32.74700164794922 -85.89199829101562,-26.590999603271484 C-87.44200134277344,-22.285999298095703 -86.96700286865234,-17.42099952697754 -84.49199676513672,-12.14799976348877 C-78.7239990234375,-10.232000350952148 -18.069000244140625,9.743000030517578 13.809000015258789,20.138999938964844 C47.08599853515625,30.98699951171875 68.84700012207031,36.5620002746582 69.06199645996094,36.60499954223633 C69.64299774169922,36.75600051879883 69.98799896240234,37.33700180053711 69.83699798583984,37.917999267578125 C69.70800018310547,38.39099884033203 69.27799987792969,38.7140007019043 68.80400085449219,38.7140007019043 C68.69599914550781,38.7140007019043 68.61000061035156,38.7140007019043 68.52400207519531,38.69300079345703 C68.30899810791016,38.62799835205078 46.483001708984375,33.05400085449219 13.142000198364258,22.18400001525879 C-3.861999988555908,16.631000518798828 -29.089000701904297,8.364999771118164 -49.77399826049805,1.5420000553131104 C-51.99100112915039,0.8320000171661377 -54.14400100708008,0.12099999934434891 -56.209999084472656,-0.5680000185966492 C-61.11800003051758,-2.181999921798706 -65.65899658203125,-3.6670000553131104 -69.61900329589844,-4.980000019073486 C-69.61900329589844,-4.980000019073486 -69.64099884033203,-4.980000019073486 -69.64099884033203,-4.980000019073486 C-71.1259994506836,-5.474999904632568 -72.5459976196289,-5.927999973297119 -73.85900115966797,-6.357999801635742 C-79.23999786376953,-8.144000053405762 -83.09400177001953,-9.413999557495117 -84.7509994506836,-9.95199966430664 C-85.26799774169922,-10.12399959564209 -85.56900024414062,-10.211000442504883 -85.61199951171875,-10.232000350952148 C-85.87000274658203,-10.34000015258789 -86.10700225830078,-10.534000396728516 -86.23600006103516,-10.791999816894531 C-86.3219985961914,-10.96399974822998 -86.40799713134766,-11.157999992370605 -86.4729995727539,-11.329999923706055 C-89.16400146484375,-17.1200008392334 -89.63700103759766,-22.5 -87.91500091552734,-27.32200050354004 C-85.13800048828125,-35.02799987792969 -77.7770004272461,-38.47200012207031 -77.47599792480469,-38.62300109863281 C-77.34700012207031,-38.6879997253418 -77.19599914550781,-38.70899963378906 -77.04499816894531,-38.70899963378906 C-76.93699645996094,-38.73099899291992 -75.25900268554688,-38.72999954223633 -67.5530014038086,-37.933998107910156 C-63.95899963378906,-37.547000885009766 -59.05099868774414,-37.007999420166016 -52.356998443603516,-36.16899871826172 C-48.569000244140625,-35.69499969482422 -44.178001403808594,-35.15700149536133 -39.14099884033203,-34.4900016784668 C19.211000442504883,-26.892000198364258 87.37899780273438,-12.277000427246094 88.06800079345703,-12.12600040435791 C88.64900207519531,-11.996999740600586 89.01599884033203,-11.437000274658203 88.90799713134766,-10.855999946594238z"></path></g></g><g opacity="1" transform="matrix(1,0,0,1,557.9509887695312,649.2730102539062)"><g opacity="1" transform="matrix(1,0,0,1,0,0)"><path fill="rgb(60,61,0)" fill-opacity="1" d=" M76.68499755859375,42.53099822998047 C76.53399658203125,43.005001068115234 76.1259994506836,43.305999755859375 75.6520004272461,43.305999755859375 C75.54399871826172,43.305999755859375 75.43699645996094,43.28499984741211 75.3290023803711,43.242000579833984 C74.57599639892578,43.005001068115234 18.05299949645996,25.44099998474121 -22.88599967956543,10.008000373840332 C-23.445999145507812,9.793000221252441 -23.983999252319336,9.598999977111816 -24.54400062561035,9.383999824523926 C-35.26300048828125,5.315999984741211 -44.840999603271484,1.4199999570846558 -51.9010009765625,-1.9589999914169312 C-52.43899917602539,-2.2170000076293945 -52.97800064086914,-2.4549999237060547 -53.472999572753906,-2.7130000591278076 C-54.29100036621094,-3.121999979019165 -55.08700180053711,-3.509999990463257 -55.819000244140625,-3.8970000743865967 C-66.81800079345703,-9.644000053405762 -73.55500030517578,-16.725000381469727 -75.85800170898438,-24.9689998626709 C-78.24700164794922,-33.49300003051758 -75.08300018310547,-40.44499969482422 -74.11399841308594,-42.29600143432617 C-73.96299743652344,-42.57600021362305 -73.85600280761719,-42.74800109863281 -73.83499908447266,-42.79100036621094 C-73.51200103759766,-43.2859992980957 -72.86599731445312,-43.45800018310547 -72.3489990234375,-43.15700149536133 C-71.83200073242188,-42.83399963378906 -71.68199920654297,-42.18899917602539 -71.98300170898438,-41.672000885009766 C-71.98300170898438,-41.672000885009766 -72.15499877929688,-41.391998291015625 -72.39199829101562,-40.917999267578125 C-73.38200378417969,-38.85200119018555 -75.81500244140625,-32.73899841308594 -73.79199981689453,-25.506999969482422 C-71.63999938964844,-17.865999221801758 -65.24700164794922,-11.258000373840332 -54.82899856567383,-5.811999797821045 C-54.07600021362305,-5.425000190734863 -53.27799987792969,-5.014999866485596 -52.43899917602539,-4.627999782562256 C-51.922000885009766,-4.3480000495910645 -51.40599822998047,-4.111999988555908 -50.86800003051758,-3.8540000915527344 C-44.02299880981445,-0.6039999723434448 -34.854000091552734,3.1419999599456787 -24.565000534057617,7.080999851226807 C-23.983999252319336,7.296000003814697 -23.381999969482422,7.511000156402588 -22.77899932861328,7.748000144958496 C18.073999404907227,23.180999755859375 75.19999694824219,40.959999084472656 75.9749984741211,41.196998596191406 C76.53500366210938,41.36899948120117 76.85700225830078,41.97100067138672 76.68499755859375,42.53099822998047z"></path></g></g></g><g opacity="1" transform="matrix(1,0,0,1,508.260986328125,595.6580200195312)"><g opacity="1" transform="matrix(1,0,0,1,0,0)"><path fill="rgb(60,61,0)" fill-opacity="1" d=" M4.185999870300293,14.972999572753906 C1.6230000257492065,14.972999572753906 -0.746999979019165,14.513999938964844 -2.611999988555908,13.994999885559082 C-3.2079999446868896,13.829000473022461 -3.819999933242798,13.668999671936035 -4.442999839782715,13.505000114440918 C-8.154999732971191,12.529999732971191 -12.36400032043457,11.425000190734863 -15.123000144958496,8.626999855041504 C-17.864999771118164,5.8460001945495605 -19.457000732421875,2.010999917984009 -19.493999481201172,-1.8919999599456787 C-19.5310001373291,-5.795000076293945 -18.010000228881836,-9.659000396728516 -15.321999549865723,-12.489999771118164 C-13.73900032043457,-14.156999588012695 -12.043999671936035,-14.939000129699707 -10.428000450134277,-14.972999572753906 C-9.871000289916992,-14.967000007629395 -9.423999786376953,-14.508000373840332 -9.430000305175781,-13.951000213623047 C-9.437000274658203,-13.392000198364258 -9.789999961853027,-12.970000267028809 -10.451000213623047,-12.954999923706055 C-11.729999542236328,-12.895999908447266 -13.04800033569336,-11.958999633789062 -13.859000205993652,-11.10099983215332 C-16.190000534057617,-8.645999908447266 -17.509000778198242,-5.295000076293945 -17.47599983215332,-1.9110000133514404 C-17.44499969482422,1.475000023841858 -16.062999725341797,4.798999786376953 -13.687000274658203,7.210000038146973 C-11.315999984741211,9.614999771118164 -7.561999797821045,10.60099983215332 -3.930999994277954,11.555000305175781 C-3.2990000247955322,11.720999717712402 -2.674999952316284,11.885000228881836 -2.069000005722046,12.053000450134277 C1.0140000581741333,12.913000106811523 5.599999904632568,13.595999717712402 9.920999526977539,11.970999717712402 C13.859999656677246,10.491000175476074 16.781999588012695,7.189000129699707 17.365999221801758,3.559000015258789 C18.0939998626709,-0.9729999899864197 15.3100004196167,-5.191999912261963 12.461999893188477,-7.631999969482422 C10.180999755859375,-9.585000038146973 7.433000087738037,-10.98900032043457 4.51200008392334,-11.692999839782715 C3.9700000286102295,-11.822999954223633 3.63700008392334,-12.368000030517578 3.7669999599456787,-12.907999992370605 C3.8970000743865967,-13.449999809265137 4.448999881744385,-13.798999786376953 4.982999801635742,-13.652000427246094 C8.213000297546387,-12.87600040435791 11.251999855041504,-11.324000358581543 13.77299976348877,-9.163000106811523 C17.937000274658203,-5.5980000495910645 20.07699966430664,-0.6010000109672546 19.356000900268555,3.878000020980835 C18.659000396728516,8.210000038146973 15.234000205993652,12.128000259399414 10.630999565124512,13.857999801635742 C8.468000411987305,14.67199993133545 6.263999938964844,14.972999572753906 4.185999870300293,14.972999572753906z"></path></g></g><g opacity="1" transform="matrix(1,0,0,1,514.031005859375,568.75)"><g opacity="1" transform="matrix(1,0,0,1,0,0)"><path fill="rgb(60,61,0)" fill-opacity="1" d=" M19.763999938964844,-1.0119999647140503 C19.979000091552734,3.378999948501587 17.41699981689453,7.921000003814697 13.262999534606934,10.54699993133545 C10.25,12.463000297546387 6.892000198364258,13.194000244140625 3.943000078201294,13.387999534606934 C3.943000078201294,13.387999534606934 3.921999931335449,13.387999534606934 3.921999931335449,13.387999534606934 C3.319000005722046,13.430999755859375 2.73799991607666,13.45300006866455 2.177999973297119,13.45300006866455 C1.531999945640564,13.45300006866455 0.9079999923706055,13.430999755859375 0.3269999921321869,13.387999534606934 C0.04699999839067459,13.366999626159668 -0.2329999953508377,13.345999717712402 -0.5339999794960022,13.324000358581543 C-0.5339999794960022,13.324000358581543 -0.5979999899864197,13.324000358581543 -0.5979999899864197,13.324000358581543 C-0.8560000061988831,13.303000450134277 -1.1150000095367432,13.302000045776367 -1.3730000257492065,13.279999732971191 C-1.3730000257492065,13.279999732971191 -1.5670000314712524,13.279999732971191 -1.5670000314712524,13.279999732971191 C-4.752999782562256,13.128999710083008 -8.281999588012695,12.935999870300293 -11.27400016784668,11.623000144958496 C-11.27400016784668,11.623000144958496 -11.27400016784668,11.623000144958496 -11.295999526977539,11.623000144958496 C-11.89900016784668,11.364999771118164 -12.479999542236328,11.064000129699707 -13.017999649047852,10.697999954223633 C-16.26799964904785,8.52400016784668 -18.61400032043457,5.10099983215332 -19.43199920654297,1.2699999809265137 C-19.64699935913086,0.3230000138282776 -19.753999710083008,-0.6460000276565552 -19.775999069213867,-1.593000054359436 C-19.1299991607666,-3.0139999389648438 -18.29199981689453,-4.4770002365112305 -17.150999069213867,-5.940999984741211 C-17.84000015258789,-3.746000051498413 -17.94700050354004,-1.3990000486373901 -17.472999572753906,0.8610000014305115 C-16.740999221801758,4.1539998054504395 -14.718999862670898,7.124000072479248 -11.89900016784668,8.996999740600586 C-9.079000473022461,10.869999885559082 -5.203999996185303,11.062999725341797 -1.4589999914169312,11.256999969482422 C-0.8130000233650208,11.300000190734863 -0.16699999570846558,11.321999549865723 0.4569999873638153,11.364999771118164 C3.6640000343322754,11.579999923706055 8.291000366210938,11.321000099182129 12.187000274658203,8.845999717712402 C15.73900032043457,6.585999965667725 17.913000106811523,2.755000114440918 17.761999130249023,-0.9039999842643738 C17.547000885009766,-5.488999843597412 13.95199966430664,-9.062000274658203 10.659000396728516,-10.869999885559082 C8.032999992370605,-12.312000274658203 5.061999797821045,-13.130000114440918 2.0490000247955322,-13.215999603271484 C1.9839999675750732,-13.215999603271484 1.8990000486373901,-13.23799991607666 1.8339999914169312,-13.258999824523926 C4.309000015258789,-13.40999984741211 7.043000221252441,-13.45300006866455 9.949000358581543,-13.45300006866455 C10.508999824523926,-13.215999603271484 11.09000015258789,-12.935999870300293 11.628000259399414,-12.635000228881836 C16.450000762939453,-9.987000465393066 19.548999786376953,-5.5320000648498535 19.763999938964844,-1.0119999647140503z"></path></g></g><g opacity="1" transform="matrix(1,0,0,1,507.3810119628906,626.3259887695312)"><g opacity="1" transform="matrix(1,0,0,1,0,0)"><path fill="rgb(60,61,0)" fill-opacity="1" d=" M17.910999298095703,8.460000038146973 C16.274999618530273,12.032999992370605 12.100000381469727,14.572999954223633 7.256999969482422,14.939000129699707 C6.783999919891357,14.982000350952148 6.309999942779541,15.003999710083008 5.857999801635742,15.003999710083008 C5.448999881744385,15.003999710083008 5.039999961853027,14.982999801635742 4.63100004196167,14.961000442504883 C3.61899995803833,14.895999908447266 2.628999948501587,14.767000198364258 1.6820000410079956,14.529999732971191 C-1.159000039100647,13.970000267028809 -3.6559998989105225,12.916000366210938 -5.5289998054504395,11.925999641418457 C-6.066999912261963,11.645999908447266 -6.626999855041504,11.345000267028809 -7.208000183105469,11.0649995803833 C-10.586999893188477,9.343000411987305 -14.397000312805176,7.406000137329102 -16.46299934387207,4.370999813079834 C-18.52899932861328,1.315000057220459 -19.23900032043457,-2.367000102996826 -18.399999618530273,-5.745999813079834 C-17.56100082397461,-9.125 -15.21500015258789,-12.095000267028809 -11.96500015258789,-13.881999969482422 C-11.621000289916992,-14.076000213623047 -11.274999618530273,-14.248000144958496 -10.930999755859375,-14.376999855041504 C-9.446000099182129,-15.00100040435791 -8.069000244140625,-15.17300033569336 -6.7769999504089355,-14.829000473022461 C-6.260000228881836,-14.699999809265137 -5.959000110626221,-14.184000015258789 -6.0879998207092285,-13.666999816894531 C-6.173999786376953,-13.366000175476074 -6.410999774932861,-13.107000350952148 -6.690999984741211,-12.99899959564209 C-6.690999984741211,-12.99899959564209 -6.7129998207092285,-12.99899959564209 -6.7129998207092285,-12.99899959564209 C-6.885000228881836,-12.956000328063965 -7.078999996185303,-12.9350004196167 -7.250999927520752,-12.99899959564209 C-8.607000350952148,-13.343000411987305 -10.071000099182129,-12.762999534606934 -11.060999870300293,-12.225000381469727 C-13.838000297546387,-10.675000190734863 -15.859999656677246,-8.156999588012695 -16.548999786376953,-5.294000148773193 C-17.259000778198242,-2.430999994277954 -16.656999588012695,0.7120000123977661 -14.892000198364258,3.315999984741211 C-13.104999542236328,5.941999912261963 -9.661999702453613,7.684999942779541 -6.3470001220703125,9.36400032043457 C-5.765999794006348,9.664999961853027 -5.205999851226807,9.946000099182129 -4.645999908447266,10.246999740600586 C-2.1489999294281006,11.538000106811523 1.5099999904632568,13.001999855041504 5.46999979019165,13.067000389099121 C5.578000068664551,13.067000389099121 5.705999851226807,13.067000389099121 5.814000129699707,13.088000297546387 C6.24399995803833,13.088000297546387 6.676000118255615,13.088000297546387 7.105999946594238,13.045000076293945 C11.281999588012695,12.722000122070312 14.833000183105469,10.61299991607666 16.18899917602539,7.685999870300293 C17.868000030517578,4.047999858856201 16.10300064086914,-0.19200000166893005 13.907999992370605,-2.9260001182556152 C12.100000381469727,-5.164999961853027 9.732000350952148,-7.015999794006348 7.040999889373779,-8.329000473022461 C6.9120001792907715,-8.394000053405762 6.803999900817871,-8.479000091552734 6.7179999351501465,-8.586999893188477 C6.502999782562256,-8.866999626159668 6.438000202178955,-9.255000114440918 6.589000225067139,-9.598999977111816 C6.826000213623047,-10.071999549865723 7.385000228881836,-10.265999794006348 7.859000205993652,-10.029000282287598 C9.795999526977539,-9.081999778747559 11.604000091552734,-7.876999855041504 13.154000282287598,-6.478000164031982 C13.972000122070312,-5.745999813079834 14.704000473022461,-4.948999881744385 15.371000289916992,-4.13100004196167 C18.64299964904785,-0.06300000101327896 19.632999420166016,4.7789998054504395 17.910999298095703,8.460000038146973z"></path></g></g><g opacity="1" transform="matrix(1,0,0,1,0,0)"><g opacity="1" transform="matrix(1,0,0,1,511.8340148925781,640.3400268554688)"><path fill="rgb(60,61,0)" fill-opacity="1" d=" M0.17800000309944153,0.9470000267028809 C-0.8339999914169312,0.8820000290870667 -1.8240000009536743,0.7540000081062317 -2.7709999084472656,0.5170000195503235 C-2.6630001068115234,0.4309999942779541 -2.555999994277954,0.3440000116825104 -2.447999954223633,0.2800000011920929 C-1.2209999561309814,-0.515999972820282 -0.05900000035762787,-0.9259999990463257 1.0169999599456787,-0.9470000267028809 C1.125,-0.9470000267028809 1.253999948501587,-0.9470000267028809 1.3619999885559082,-0.9259999990463257 C1.6200000047683716,-0.9259999990463257 1.878999948501587,-0.8830000162124634 2.13700008392334,-0.8180000185966492 C2.5889999866485596,-0.6890000104904175 2.868000030517578,-0.2160000056028366 2.739000082015991,0.257999986410141 C2.609999895095825,0.7099999785423279 2.13700008392334,0.9900000095367432 1.684999942779541,0.8610000014305115 C1.190000057220459,0.7319999933242798 0.6729999780654907,0.7960000038146973 0.17800000309944153,0.9470000267028809z"></path></g><g opacity="1" transform="matrix(1,0,0,1,519.2620239257812,656.6439819335938)"><path fill="rgb(60,61,0)" fill-opacity="1" d=" M15.803000450134277,2.63700008392334 C15.694999694824219,3.5199999809265137 15.479000091552734,4.38100004196167 15.135000228881836,5.177000045776367 C13.628000259399414,8.729000091552734 9.991000175476074,11.375 5.836999893188477,11.892000198364258 C5.2769999504089355,11.956999778747559 4.7170000076293945,12 4.136000156402588,12 C1.1660000085830688,12 -1.9980000257492065,11.053000450134277 -5.076000213623047,9.244999885559082 C-5.5279998779296875,8.987000465393066 -6.000999927520752,8.727999687194824 -6.474999904632568,8.447999954223633 C-9.315999984741211,6.834000110626221 -12.545000076293945,5.025000095367432 -14.20199966430664,2.055000066757202 C-15.859000205993652,-0.8939999938011169 -16.354000091552734,-4.48799991607666 -15.557999610900879,-7.823999881744385 C-15.36400032043457,-8.598999977111816 -15.105999946594238,-9.35200023651123 -14.782999992370605,-10.083999633789062 C-14.503000259399414,-10.75100040435791 -14.159000396728516,-11.397000312805176 -13.75,-12 C-13.232999801635742,-11.720000267028809 -12.717000007629395,-11.482999801635742 -12.178999900817871,-11.225000381469727 C-12.588000297546387,-10.644000053405762 -12.932000160217285,-9.998000144958496 -13.211999893188477,-9.331000328063965 C-13.491999626159668,-8.727999687194824 -13.706999778747559,-8.083000183105469 -13.857999801635742,-7.436999797821045 C-14.54699993133545,-4.510000228881836 -14.137999534606934,-1.3660000562667847 -12.696000099182129,1.1950000524520874 C-11.253999710083008,3.734999895095825 -8.390999794006348,5.370999813079834 -5.613999843597412,6.941999912261963 C-5.140999794006348,7.199999809265137 -4.666999816894531,7.480000019073486 -4.193999767303467,7.73799991607666 C-1.86899995803833,9.116000175476074 1.7480000257492065,10.642999649047852 5.622000217437744,10.170000076293945 C9.173999786376953,9.718000411987305 12.272000312805176,7.500999927520752 13.520999908447266,4.508999824523926 C13.864999771118164,3.690999984741211 14.059000015258789,2.8519999980926514 14.145000457763672,2.013000011444092 C14.230999946594238,1.2380000352859497 14.210000038146973,0.46299999952316284 14.12399959564209,-0.28999999165534973 C14.704999923706055,-0.07500000298023224 15.307000160217285,0.14000000059604645 15.90999984741211,0.37700000405311584 C15.95300006866455,1.1519999504089355 15.932000160217285,1.9049999713897705 15.803000450134277,2.63700008392334z"></path></g></g></g></g><g opacity="1" transform="matrix(1,0,0,1,731.4119873046875,703.510986328125)"><path fill="rgb(156,115,247)" fill-opacity="1" d=" M26.549999237060547,-72.6449966430664 C26.549999237060547,-72.6449966430664 132.0500030517578,-55.01100158691406 132.0500030517578,-55.01100158691406 C132.0500030517578,-55.01100158691406 110.68699645996094,103.23699951171875 110.68699645996094,103.23699951171875 C110.68699645996094,103.23699951171875 26.549999237060547,75.03399658203125 26.549999237060547,75.03399658203125 C26.549999237060547,75.03399658203125 -26.549999237060547,55.77000045776367 -26.549999237060547,55.77000045776367 C-26.549999237060547,55.77000045776367 4.229000091552734,-75.03399658203125 4.229000091552734,-75.03399658203125 C4.229000091552734,-75.03399658203125 26.549999237060547,-72.6449966430664 26.549999237060547,-72.6449966430664z"></path></g></g></g></g></svg>