<svg xmlns="http://www.w3.org/2000/svg" xmlns:xlink="http://www.w3.org/1999/xlink" viewBox="0 0 600 600" width="600" height="600" preserveAspectRatio="xMidYMid meet" style="width: 100%; height: 100%; transform: translate3d(0px, 0px, 0px); content-visibility: visible;"><defs><clipPath id="__lottie_element_178"><rect width="600" height="600" x="0" y="0"></rect></clipPath></defs><g clip-path="url(#__lottie_element_178)"><g transform="matrix(1,0,0,1,68.5,12.5)" opacity="0.06" style="display: block;"><g opacity="1" transform="matrix(1,0,0,1,237.05099487304688,237.05099487304688)"><path fill="rgb(128,25,255)" fill-opacity="1" d=" M0,-237.05099487304688 C130.9199981689453,-237.05099487304688 237.05099487304688,-130.9199981689453 237.05099487304688,0 C237.05099487304688,130.9199981689453 130.9199981689453,237.05099487304688 0,237.05099487304688 C-130.9199981689453,237.05099487304688 -237.05099487304688,130.9199981689453 -237.05099487304688,0 C-237.05099487304688,-130.9199981689453 -130.9199981689453,-237.05099487304688 0,-237.05099487304688z"></path></g></g><g transform="matrix(0.9979634284973145,-0.06378909945487976,0.06378909945487976,0.9979634284973145,169.06863403320312,258.72186279296875)" opacity="1" style="display: block;"><g opacity="1" transform="matrix(1,0,0,1,124.56199645996094,168.9080047607422)"><path fill="rgb(224,217,230)" fill-opacity="1" d=" M-85.65699768066406,-166.3489990234375 C-85.65699768066406,-166.3489990234375 99.8290023803711,-158.25100708007812 99.8290023803711,-158.25100708007812 C112.63400268554688,-157.6909942626953 122.56099700927734,-146.85800170898438 122.00199890136719,-134.05299377441406 C122.00199890136719,-134.05299377441406 109.8550033569336,144.17599487304688 109.8550033569336,144.17599487304688 C109.2959976196289,156.9810028076172 98.46199798583984,166.9080047607422 85.65699768066406,166.3489990234375 C85.65699768066406,166.3489990234375 -99.8290023803711,158.25100708007812 -99.8290023803711,158.25100708007812 C-112.63400268554688,157.69200134277344 -122.56199645996094,146.85800170898438 -122.00299835205078,134.05299377441406 C-122.00299835205078,134.05299377441406 -109.8550033569336,-144.17599487304688 -109.8550033569336,-144.17599487304688 C-109.2959976196289,-156.9810028076172 -98.46199798583984,-166.9080047607422 -85.65699768066406,-166.3489990234375z"></path></g><g opacity="1" transform="matrix(1,0,0,1,124.56199645996094,168.9080047607422)"><path stroke-linecap="butt" stroke-linejoin="miter" fill-opacity="0" stroke-miterlimit="4" stroke="rgb(147,69,241)" stroke-opacity="1" stroke-width="2" d=" M-85.65699768066406,-166.3489990234375 C-85.65699768066406,-166.3489990234375 99.8290023803711,-158.25100708007812 99.8290023803711,-158.25100708007812 C112.63400268554688,-157.6909942626953 122.56099700927734,-146.85800170898438 122.00199890136719,-134.05299377441406 C122.00199890136719,-134.05299377441406 109.8550033569336,144.17599487304688 109.8550033569336,144.17599487304688 C109.2959976196289,156.9810028076172 98.46199798583984,166.9080047607422 85.65699768066406,166.3489990234375 C85.65699768066406,166.3489990234375 -99.8290023803711,158.25100708007812 -99.8290023803711,158.25100708007812 C-112.63400268554688,157.69200134277344 -122.56199645996094,146.85800170898438 -122.00299835205078,134.05299377441406 C-122.00299835205078,134.05299377441406 -109.8550033569336,-144.17599487304688 -109.8550033569336,-144.17599487304688 C-109.2959976196289,-156.9810028076172 -98.46199798583984,-166.9080047607422 -85.65699768066406,-166.3489990234375z"></path></g></g><g transform="matrix(1,0,0,1,67,166.5)" opacity="1" style="display: block;"><g opacity="1" transform="matrix(1,0,0,1,143.94700622558594,226.16600036621094)"><path fill="rgb(250,247,251)" fill-opacity="1" d=" M-114.10700225830078,-155.52200317382812 C-114.10700225830078,-155.52200317382812 69.96700286865234,-179.7550048828125 69.96700286865234,-179.7550048828125 C86.30500030517578,-181.906005859375 101.29399871826172,-170.40499877929688 103.44499969482422,-154.0659942626953 C103.44499969482422,-154.0659942626953 139.79600524902344,122.04399871826172 139.79600524902344,122.04399871826172 C141.94700622558594,138.3820037841797 130.44500732421875,153.37100219726562 114.10700225830078,155.52200317382812 C114.10700225830078,155.52200317382812 -69.96700286865234,179.7550048828125 -69.96700286865234,179.7550048828125 C-86.30500030517578,181.906005859375 -101.29399871826172,170.40499877929688 -103.44499969482422,154.06700134277344 C-103.44499969482422,154.06700134277344 -139.79600524902344,-122.04299926757812 -139.79600524902344,-122.04299926757812 C-141.94700622558594,-138.38099670410156 -130.44500732421875,-153.37100219726562 -114.10700225830078,-155.52200317382812z"></path></g><g opacity="1" transform="matrix(1,0,0,1,144.57400512695312,226.7989959716797)"><path stroke-linecap="butt" stroke-linejoin="miter" fill-opacity="0" stroke-miterlimit="4" stroke="rgb(147,69,241)" stroke-opacity="1" stroke-width="2" d=" M-114.10700225830078,-155.52200317382812 C-114.10700225830078,-155.52200317382812 69.96700286865234,-179.7550048828125 69.96700286865234,-179.7550048828125 C86.30500030517578,-181.906005859375 101.29399871826172,-170.40499877929688 103.44499969482422,-154.0659942626953 C103.44499969482422,-154.0659942626953 139.79600524902344,122.04399871826172 139.79600524902344,122.04399871826172 C141.94700622558594,138.3820037841797 130.44500732421875,153.37100219726562 114.10700225830078,155.52200317382812 C114.10700225830078,155.52200317382812 -69.96700286865234,179.7550048828125 -69.96700286865234,179.7550048828125 C-86.30500030517578,181.906005859375 -101.29399871826172,170.40499877929688 -103.44499969482422,154.06700134277344 C-103.44499969482422,154.06700134277344 -139.79600524902344,-122.04299926757812 -139.79600524902344,-122.04299926757812 C-141.94700622558594,-138.38099670410156 -130.44500732421875,-153.37100219726562 -114.10700225830078,-155.52200317382812z"></path></g><g opacity="1" transform="matrix(1,0,0,1,128.06100463867188,100.39099884033203)"><path fill="rgb(224,217,230)" fill-opacity="1" d=" M-120.62300109863281,3.2990000247955322 C-122.53500366210938,-11.223999977111816 -112.31199645996094,-24.547000885009766 -97.78900146484375,-26.458999633789062 C-97.78900146484375,-26.458999633789062 86.28500366210938,-50.69300079345703 86.28500366210938,-50.69300079345703 C100.80799865722656,-52.60499954223633 114.13099670410156,-42.38199996948242 116.04299926757812,-27.857999801635742 C116.04299926757812,-27.857999801635742 122.53500366210938,21.44700050354004 122.53500366210938,21.44700050354004 C122.53500366210938,21.44700050354004 -114.13200378417969,52.60499954223633 -114.13200378417969,52.60499954223633 C-114.13200378417969,52.60499954223633 -120.62300109863281,3.2990000247955322 -120.62300109863281,3.2990000247955322z"></path></g><g opacity="1" transform="matrix(0.055003490298986435,0,0,0.055003490298986435,260.0843505859375,65.52687072753906)"><path fill="rgb(169,159,181)" fill-opacity="1" d=" M16.43600082397461,-2.1640000343322754 C16.43600082397461,-2.1640000343322754 16.43600082397461,-2.1640000343322754 16.43600082397461,-2.1640000343322754 C16.79400062561035,0.5590000152587891 14.878000259399414,3.058000087738037 12.154999732971191,3.4170000553131104 C12.154999732971191,3.4170000553131104 -10.854999542236328,6.445000171661377 -10.854999542236328,6.445000171661377 C-13.57800006866455,6.802999973297119 -16.07699966430664,4.888000011444092 -16.434999465942383,2.1640000343322754 C-16.79400062561035,-0.5590000152587891 -14.876999855041504,-3.056999921798706 -12.154000282287598,-3.4149999618530273 C-12.154000282287598,-3.4149999618530273 10.854999542236328,-6.443999767303467 10.854999542236328,-6.443999767303467 C13.57800006866455,-6.802999973297119 16.077999114990234,-4.88700008392334 16.43600082397461,-2.1640000343322754z"></path></g><g opacity="1" transform="matrix(0.04373949021100998,0,0,0.04373949021100998,244.03977966308594,38.23380661010742)"><path fill="rgb(169,159,181)" fill-opacity="1" d=" M10.090999603271484,-13.152000427246094 C10.090999603271484,-13.152000427246094 10.090999603271484,-13.152000427246094 10.090999603271484,-13.152000427246094 C12.270000457763672,-11.479999542236328 12.682000160217285,-8.357000350952148 11.010000228881836,-6.177999973297119 C11.010000228881836,-6.177999973297119 -3.11899995803833,12.234000205993652 -3.11899995803833,12.234000205993652 C-4.790999889373779,14.413000106811523 -7.913000106811523,14.824000358581543 -10.092000007629395,13.152000427246094 C-12.270999908447266,11.479999542236328 -12.682000160217285,8.357999801635742 -11.010000228881836,6.178999900817871 C-11.010000228881836,6.178999900817871 3.118000030517578,-12.232999801635742 3.118000030517578,-12.232999801635742 C4.789999961853027,-14.411999702453613 7.9120001792907715,-14.824000358581543 10.090999603271484,-13.152000427246094z"></path></g><g opacity="1" transform="matrix(0.006729153450578451,0,0,0.006729153450578451,210.29103088378906,32.37811279296875)"><path fill="rgb(169,159,181)" fill-opacity="1" d=" M-2.1630001068115234,-16.434999465942383 C-2.1630001068115234,-16.434999465942383 -2.1630001068115234,-16.434999465942383 -2.1630001068115234,-16.434999465942383 C0.5600000023841858,-16.79400062561035 3.058000087738037,-14.876999855041504 3.4170000553131104,-12.154000282287598 C3.4170000553131104,-12.154000282287598 6.445000171661377,10.855999946594238 6.445000171661377,10.855999946594238 C6.802999973297119,13.579000473022461 4.888000011444092,16.07699966430664 2.1640000343322754,16.434999465942383 C-0.5590000152587891,16.79400062561035 -3.056999921798706,14.876999855041504 -3.4149999618530273,12.154000282287598 C-3.4149999618530273,12.154000282287598 -6.443999767303467,-10.854999542236328 -6.443999767303467,-10.854999542236328 C-6.802999973297119,-13.57800006866455 -4.886000156402588,-16.07699966430664 -2.1630001068115234,-16.434999465942383z"></path></g><g opacity="1" transform="matrix(1,0,0,1,152.16900634765625,288.6199951171875)"><path fill="rgb(147,69,241)" fill-opacity="1" d=" M-89.61499786376953,5.110000133514404 C-89.61499786376953,5.110000133514404 6.612386226654053,-7.38814640045166 6.612386226654053,-7.38814640045166 C10.243386268615723,-7.866146564483643 13.573386192321777,-5.310146808624268 14.051385879516602,-1.68014657497406 C14.529386520385742,1.9508534669876099 11.974386215209961,5.281853199005127 8.343385696411133,5.759853363037109 C8.343385696411133,5.759853363037109 -87.88400268554688,18.257999420166016 -87.88400268554688,18.257999420166016 C-91.51499938964844,18.736000061035156 -94.84600067138672,16.18000030517578 -95.3239974975586,12.550000190734863 C-95.802001953125,8.918999671936035 -93.24600219726562,5.5879998207092285 -89.61499786376953,5.110000133514404z"></path></g><g opacity="1" transform="matrix(1,0,0,1,143.51400756835938,222.87899780273438)"><path fill="rgb(147,69,241)" fill-opacity="1" d=" M-89.61499786376953,5.110000133514404 C-89.61499786376953,5.110000133514404 52.98493957519531,-14.365533828735352 52.98493957519531,-14.365533828735352 C56.61594009399414,-14.843534469604492 59.94593811035156,-12.2875337600708 60.4239387512207,-8.6575345993042 C60.901939392089844,-5.026534080505371 58.34693908691406,-1.6955342292785645 54.715938568115234,-1.2175341844558716 C54.715938568115234,-1.2175341844558716 -87.88400268554688,18.257999420166016 -87.88400268554688,18.257999420166016 C-91.51499938964844,18.736000061035156 -94.84600067138672,16.18000030517578 -95.3239974975586,12.550000190734863 C-95.802001953125,8.918999671936035 -93.24600219726562,5.5879998207092285 -89.61499786376953,5.110000133514404z"></path></g><g opacity="1" transform="matrix(1,0,0,1,135.1230010986328,157.13900756835938)"><path fill="rgb(147,69,241)" fill-opacity="1" d=" M-89.61499786376953,5.110000133514404 C-89.61499786376953,5.110000133514404 33.87159729003906,-11.4303617477417 33.87159729003906,-11.4303617477417 C37.50259780883789,-11.908361434936523 40.83259582519531,-9.352361679077148 41.31059646606445,-5.7223615646362305 C41.788597106933594,-2.0913615226745605 39.23359680175781,1.2396384477615356 35.602596282958984,1.717638373374939 C35.602596282958984,1.717638373374939 -87.88400268554688,18.257999420166016 -87.88400268554688,18.257999420166016 C-91.51499938964844,18.736000061035156 -94.84600067138672,16.18000030517578 -95.3239974975586,12.550000190734863 C-95.802001953125,8.918999671936035 -93.24600219726562,5.5879998207092285 -89.61499786376953,5.110000133514404z"></path></g><g opacity="1" transform="matrix(1,0,0,1,94.82099914550781,322.9230041503906)"><path fill="rgb(224,217,230)" fill-opacity="1" d=" M-28.80500030517578,-2.8959999084472656 C-28.80500030517578,-2.8959999084472656 9.361547470092773,-7.69163179397583 9.361547470092773,-7.69163179397583 C12.991547584533691,-8.169631958007812 16.322547912597656,-5.612631797790527 16.800546646118164,-1.981631875038147 C17.278547286987305,1.6493680477142334 14.72254753112793,4.978368282318115 11.092547416687012,5.4563679695129395 C11.092547416687012,5.4563679695129395 -27.073999404907227,10.253000259399414 -27.073999404907227,10.253000259399414 C-30.704999923706055,10.730999946594238 -34.0359992980957,8.173999786376953 -34.513999938964844,4.544000148773193 C-34.992000579833984,0.9129999876022339 -32.43600082397461,-2.4179999828338623 -28.80500030517578,-2.8959999084472656z"></path></g><g opacity="1" transform="matrix(1,0,0,1,86.16600036621094,257.1820068359375)"><path fill="rgb(224,217,230)" fill-opacity="1" d=" M-28.80500030517578,-2.8959999084472656 C-28.80500030517578,-2.8959999084472656 10.209054946899414,-7.7769904136657715 10.209054946899414,-7.7769904136657715 C13.839055061340332,-8.254990577697754 17.170055389404297,-5.698990345001221 17.648056030273438,-2.067990303039551 C18.126054763793945,1.5630097389221191 15.57005500793457,4.893009662628174 11.940055847167969,5.371009826660156 C11.940055847167969,5.371009826660156 -27.073999404907227,10.251999855041504 -27.073999404907227,10.251999855041504 C-30.704999923706055,10.729999542236328 -34.0359992980957,8.173999786376953 -34.513999938964844,4.544000148773193 C-34.992000579833984,0.9129999876022339 -32.43600082397461,-2.4179999828338623 -28.80500030517578,-2.8959999084472656z"></path></g><g opacity="1" transform="matrix(1,0,0,1,77.51100158691406,191.4409942626953)"><path fill="rgb(224,217,230)" fill-opacity="1" d=" M-28.80500030517578,-2.8959999084472656 C-28.80500030517578,-2.8959999084472656 9.656954765319824,-7.87449836730957 9.656954765319824,-7.87449836730957 C13.286954879760742,-8.352498054504395 16.61795425415039,-5.795498371124268 17.09595489501953,-2.1644983291625977 C17.57395362854004,1.4665015935897827 15.01795482635498,4.795501708984375 11.387954711914062,5.273501396179199 C11.387954711914062,5.273501396179199 -27.073999404907227,10.253000259399414 -27.073999404907227,10.253000259399414 C-30.704999923706055,10.730999946594238 -34.0359992980957,8.173999786376953 -34.513999938964844,4.544000148773193 C-34.992000579833984,0.9129999876022339 -32.43600082397461,-2.4179999828338623 -28.80500030517578,-2.8959999084472656z"></path></g><g opacity="1" transform="matrix(1,0,0,1,0,0)"><path fill="rgb(29,7,112)" fill-opacity="1" d=" M196.75,247.5"></path><path stroke-linecap="butt" stroke-linejoin="miter" fill-opacity="0" stroke-miterlimit="4" stroke="rgb(29,7,112)" stroke-opacity="1" stroke-width="2" d=" M196.75,247.5"></path></g></g></g></svg>